<?xml version="1.0" encoding="utf-8"?>
<!-- Generator: Adobe Illustrator 19.2.1, SVG Export Plug-In . SVG Version: 6.00 Build 0)  -->
<svg version="1.1" id="layer" xmlns="http://www.w3.org/2000/svg" xmlns:xlink="http://www.w3.org/1999/xlink" x="0px" y="0px"
	 viewBox="0 0 652 652" style="enable-background:new 0 0 652 652;" xml:space="preserve">
<style type="text/css">
	.st0{fill:#F36D21;}
	.st1{fill:#53565A;}
</style>
<g>
	<path class="st0" d="M232.8,338.9c-4.2,0-8.3-0.8-12.1-2.5l0.9-6.2c3.3,2.1,7.2,3.2,11.1,3.2c6.3,0,8.9-3.6,8.9-7.1
		c0.1-8.8-20.5-10-20.5-23.2c0-7.1,4.6-12.8,15.5-12.8c3.9-0.1,7.7,0.7,11.2,2.2l-0.3,6.2c-3.3-1.9-7.1-2.9-10.9-3
		c-6.7,0-8.7,3.6-8.7,7.1c0,8.9,20.6,10.7,20.6,23.2C248.5,333.2,242.8,338.9,232.8,338.9z"/>
	<path class="st0" d="M281.8,335.9c-3.5,2.1-7.5,3.2-11.6,3c-8.9,0-15.6-6.5-15.6-18.7c0-12.8,8.7-18.2,15.7-18.2
		c6.4,0,10.9,1.6,11.5,6.3c0,0.7,0,1.7,0,2.6h-5.5c0-3-1.6-3.7-5.7-3.7c-1.4-0.1-2.7,0.1-4,0.6c-0.6,0.4-5.5,2.8-5.5,12.2
		c0,9.4,5.7,13.8,10.7,13.8c3.5-0.2,6.8-1.5,9.5-3.6L281.8,335.9z"/>
	<path class="st0" d="M291,296.9c-2.2-0.2-3.9-2.1-3.9-4.3c-0.2-2.2,1.4-4.1,3.6-4.3c2.2-0.2,4.1,1.4,4.3,3.6c0,0.2,0,0.5,0,0.7
		C294.9,294.8,293.2,296.6,291,296.9z M288,303.1h6v35h-6V303.1z"/>
	<path class="st0" d="M308.2,319.8v1.2c0,8.4,4.1,12.9,11.5,12.9c4,0,7.8-1.3,11-3.6l0.5,5.4c-4,2.3-8.7,3.4-13.3,3.2
		c-8.9,0-15.8-6.8-15.8-18.3c0-12.1,6.6-18.6,15.6-18.6c10.7,0,14.1,5.6,14.1,17.9H308.2z M326.3,315c-0.2-6.8-3.2-8-8.9-8
		c-1.7,0-3.3,0.4-4.9,1.2c-2,1.8-3.3,4.2-3.7,6.8H326.3z"/>
	<path class="st0" d="M368.2,338.1h-6c0,0,0.3-8.1,0.2-15.2c0,0,0-4.6,0-7.4c-0.1-5.3-0.6-8-6-8c-1.7,0-3.3,0.3-4.9,0.9
		c-2.2,1.8-4.1,3.9-5.8,6.2v23.5h-6v-25.3c0-2.3-0.1-4.7-0.3-7l-0.4-2.6h5.5l0.9,5.2c2.6-3.8,6.8-6,11.4-6.1c6.3,0,10.5,2,11.1,9.2
		c0.3,3.5,0.2,7,0.2,10.5C368.4,327.6,368.2,338.1,368.2,338.1z"/>
	<path class="st0" d="M403.4,335.9c-3.5,2.1-7.5,3.2-11.6,3c-8.9,0-15.6-6.5-15.6-18.7c0-12.8,8.7-18.2,15.7-18.2
		c6.4,0,10.9,1.6,11.5,6.3c0,0.7,0,1.7,0,2.6h-5.5c0-3-1.6-3.7-5.7-3.7c-1.4-0.1-2.7,0.1-4,0.6c-0.6,0.4-5.5,2.8-5.5,12.2
		c0,9.4,5.7,13.8,10.7,13.8c3.5-0.2,6.8-1.5,9.5-3.6L403.4,335.9z"/>
	<path class="st0" d="M413,319.8v1.2c0,8.4,4.1,12.9,11.5,12.9c4,0,7.8-1.3,11-3.6l0.5,5.4c-4,2.3-8.6,3.4-13.2,3.2
		c-8.9,0-15.8-6.8-15.8-18.3c0-12.1,6.6-18.6,15.6-18.6c10.7,0,14.1,5.6,14.1,17.9H413z M431.2,315c-0.2-6.8-3.2-8-8.9-8
		c-1.6,0-3.2,0.4-4.6,1.1c-2.1,1.8-3.5,4.3-3.8,7H431.2z"/>
	<path class="st0" d="M462.1,338.1h-16v-46.9h16.7c16.5,0,22.2,12.5,22.2,23.2C485,324.8,479.1,338.1,462.1,338.1z M461.8,296.4
		h-9.6v36.7h8.9c11.9,0,17.1-6.9,17.1-18.6c-0.1-8-3.8-18.3-16.4-18.3V296.4z"/>
	<path class="st0" d="M496.7,296.9c-2.2-0.2-3.9-2.1-3.9-4.3c-0.2-2.2,1.4-4.1,3.6-4.3c2.2-0.2,4.1,1.4,4.3,3.6c0,0.2,0,0.5,0,0.7
		C500.7,294.8,499,296.6,496.7,296.9z M493.8,303.1h6v35h-6V303.1z"/>
	<path class="st0" d="M531.3,308.6l-4.9,1.4c0-0.5-0.2-3-2.5-3c-3.4,0-6.2,5.7-7.4,8.7V338h-6v-25.4c0-2.3-0.1-4.6-0.3-6.8l-0.3-2.6
		h5.5l1,5.6c1.2-3.5,4.3-6,8-6.4c3.3-0.5,6.3,1.8,6.7,5.1c0,0,0,0,0,0c0,0.5,0.1,0.9,0.1,0.9V308.6z"/>
	<path class="st0" d="M540.2,319.8v1.2c0,8.4,4.1,12.9,11.5,12.9c4,0,7.8-1.3,11-3.7l0.5,5.4c-4,2.4-8.7,3.5-13.4,3.2
		c-8.9,0-15.8-6.8-15.8-18.3c0-12.1,6.6-18.6,15.6-18.6c10.7,0,14.1,5.6,14.1,17.9H540.2z M558.3,315c-0.2-6.8-3.2-8-8.9-8
		c-1.6,0-3.2,0.4-4.6,1.1c-2.1,1.7-3.5,4.2-3.9,7H558.3z"/>
	<path class="st0" d="M596.1,335.9c-3.5,2.2-7.5,3.4-11.6,3.2c-8.9,0-15.6-6.5-15.6-18.7c0-12.8,8.7-18.2,15.7-18.2
		c6.4,0,10.9,1.6,11.5,6.3c0,0.7,0,1.7,0,2.6h-5.5c0-3-1.6-3.7-5.7-3.7c-1.4-0.1-2.7,0.1-4,0.6c-0.6,0.4-5.5,2.8-5.5,12.2
		c0,9.4,5.7,13.8,10.7,13.8c3.5-0.2,6.8-1.5,9.5-3.6L596.1,335.9z"/>
	<path class="st0" d="M620.8,337.2c-2.5,1.1-5.3,1.7-8,1.8c-4.6,0-7.8-2.6-7.8-8.8v-22.7h-6.5v-4.5h6.3v-9.5h6v9.5h9.2v4.6h-9.2
		v20.8c0,4,1,5.5,3.7,5.5c2.1-0.2,4.1-0.7,6-1.6L620.8,337.2z"/>
</g>
<path class="st1" d="M65.5,316.5c1.7-0.9,2.7-2,2.9-3.3c0.3-1.2-0.8-1.1-1-0.8c-1,0.8-2.2,2-3.4,2.8c-0.6,0-1.1,0.1-1.7,0.2
	c-0.1-0.1-0.3-0.3-0.2-0.4c1.1-0.7,2.3-1.4,3.1-2.3c0.5-0.6,0.3-1.1-0.7-1.2c-1.1-0.2-2.4,0.3-3.4,1.2c-1.7,1.4-2.5,4.6-2.7,6.6
	c-0.3,0.4-0.4,0.4-0.8,0.5c-0.6-2.2-0.3-4.6,0.9-6.6c0.1-0.4,0-1.1-0.6-1.3c-0.3-0.1-0.5-0.1-0.7,0.3c-0.8,2.4-2.3,3.4-4.3,4.9
	c-0.2,0.1-2,1.2-2.5,1.4c-1.6-0.5-3.4-3.5-4.9-5.7c-0.3-0.4-0.8-0.7-1.3-0.6c-3.3,0.4-5.8,0.1-7.6-2.5c-0.8-1.1-1.2-1.3-2.1-0.3
	c-1.1,1.2-2.2,2.1-3.3,3c-0.6,0.4-1,0.3-1.3-0.5c-0.8-2.3-1.1-4.6-1.1-7c0-1,0.1-2.5,0.1-3.5c-0.6-0.6-1.3-1.1-2.1-1.4
	c-2.8-1.3-6.1-4.4-6.1-5.4c0-0.2,0.2-0.7,1-1.2c4-1.8,7.2-0.3,8.4-0.5c1-0.1,1.4-0.8,1.2-2.3c-0.4-2.7,0.6-5.4,2.6-7.2
	c1.4-1.5,1.3-3.1,1-4.9c-0.2-0.8-0.4-1-1.2-1c-2.2,0.5-2.1,0.5-2.5,2.5c-0.2,1.3-0.7,2.5-1.4,3.6c-0.9,1.4-2.1,2.6-3.1,3.8
	c-0.4,0.5-0.8,0.5-1.3,0.1c-3.1-1.9-4.3-5.8-2.8-9.2c0.4-1,0.9-2,1.5-2.5l0.3,0.1c0,0.2,0,0.4-0.1,0.6l-0.7,2.1
	c-0.8,2.4-0.7,4.7,0.9,6.7c0.5,0.7,1,0.9,1.3,0.6c1-1,2.1-2,3-3.1c1.1-1.3,1.4-2.8,1.1-4.3c-0.1-0.6-0.2-1.2-0.3-1.8
	c-0.1-0.9-0.5-0.8-1-0.3c-1,1-1.5,1.8-1.9,3.7c-0.1,0.3-0.2,0.5-0.4,0.7c-0.2-0.3-0.2-0.6-0.2-1c0.3-1.7,0.7-3.1,1.7-4.2
	c0.7-0.8,0.5-1.2-0.1-1.4c-2.4-0.7-4.4-1.3-6.3-3.6c-0.3-0.3-0.5-0.8-0.5-1.2c0-0.5,0.2-0.8,0.8-1.2c2.1-1.4,4.2-2.9,6.3-3.4
	l1.7-0.3c-1-2.9-1.9-6.5-2.5-9.7c0-0.7,0.5-2.5,0.7-3c0.4-0.1,1-0.1,1.8,0.2c1,0.4,1.8,1,2.7,1.5c0.9,0.5,1.1,0.5,1.7-0.3
	c1-1.4,2.1-2.6,3.5-3.4c0.5-0.2,0.8-0.4,1.2-0.4c0.5,0,0.8,0.3,1.3,1c0.8,1.3,1.5,2.8,2.2,4.2c0.8,1.4,1.7,1.5,3,0.6
	c1.4-1,2.7-1.9,4-2.9c1.2-1,1.5-1,2.9,0c1.2,0.8,2.5,2.3,3.1,3.7c0.1,0.2,2.9-1.3,3-1.9c0.1-1.2,0.4-2.1,0.9-3
	c0.6-1.2,1.4-1.5,2.2-1.5c0.7,0,2,0.8,3,1.4l2.1,1.2c1.1,0.6,1.2,0.6,1.8-0.4c0.7-1.2,1.4-1.4,2.9-1.4c3,0,5.8,0.8,7.9,3.3
	c0.4,0.5,0.7,0.6,1.2,0.1c0.9-0.9,1.7-1.2,3.3-1.2h2.8c0.6,0,1,0,1.6-0.8c0.8-1.1,1.6-2.2,2.9-2.2c2,0,4.6,2.8,6,5.2l-0.7,0.4
	c-1.5-1.5-3.3-2.6-5.2-3.3c-1.2-0.5-1.7,0-1.6,1.3c0.2,1.5,0.6,3,0.9,4.4c0.4,1.4,1.6,2.6,3,3.1l0.1,0.5c-0.2-0.1-0.5-0.1-0.8-0.2
	c-0.9-0.2-1.7-0.1-2.6,0.1c-1.7,0.4-3.2,1.1-4.7,1.8c-0.7,0.4-0.7,0.5-0.1,1.2c0.8,0.8,1.6,1.7,2.6,2.4c2.7,2,5.4,1.6,8.3,0.5
	l1.4-0.5c1.3-0.2,2.6,0.3,3.6,1.2l3,2.7c1,0.9,1.2,1.7,0.6,2.9c-1,1.9-2.1,3.9-3.2,5.7c-0.2,0.3-0.4,0.5-0.7,0.7
	c-0.4-0.3-0.7-1-0.3-1.6c1.3-1.7,2.1-4,2.4-5.6c0.3-1.5-0.6-2.3-2-1.9l-1.3,0.5c-0.5,0.2-0.7,0-0.8-0.5c-0.2-0.5-0.4-0.8-0.6-1.3
	c-0.4-0.8-0.8-1.1-1.5-0.6c-1.3,0.8-2.1,1.5-2.9,2.8c-1.1,2-1.5,4.2-1.2,6.5c0,0.3,0.3,0.5,0.4,0.7c0.3-0.1,0.5-0.3,0.6-0.6
	c0.4-1,0.6-1.9,0.8-3c0.1-0.6,0.2-1.6,0.4-2.1c0.1-0.3,0.6-0.2,0.8-0.1c0.6,0.2,0.9,0.6,1,1c-1.3,1.6-2,3.9-2.9,6
	c-0.1,0.3-0.7,0.7-1,0.7c-0.4,0-0.9-0.4-1-0.7c-0.5-1.3-1.4-2.6-1.8-4c-0.9-4.5-1.2-4.8-1.4-5c-1.8-2.9-4-5.5-6.7-7.7
	c-0.2-0.2-0.3-0.5-0.5-0.7c0.2-0.1,0.4-0.3,0.7-0.4l2.6-1c1.1-0.4,1.9-1.1,2.4-2.1c0.3-0.6,0.7-1.2,1.1-1.8c0.5-0.8,0.4-1.3-0.2-2
	c-1.1-1.3-2.8-1.8-4.4-1.3c-1.7,0.4-2.7,1.6-3.3,3.2c-0.2,0.6-0.3,1.2-0.3,1.8c0,0.9,0.3,1.1,1,0.6c1.2-1,2.6-1.8,4-2.7
	c-0.6,1.4-1.5,2.5-2.7,3.3c-0.8,0.5-1.6,1-2.5,1.4c-0.7,0.5-1,0.3-1.2-0.5c-0.2-0.9-0.1-1.8-0.1-2.7c0.2-2.7-1.4-5.1-4-6l-2.2-0.9
	c-0.6,0.4-0.9,1.2-0.8,1.9c0.2,2.4,0.5,4.2,1,6.2c0.4,0.8,1.3,1.2,2.2,1.3c0.6-0.3,1-1.1,0.3-2.3l-1.1-2.1c-0.1-0.3-0.2-0.5-0.3-0.8
	c-0.1-0.1-0.1-0.3,0-0.4c0.1,0.1,0.3,0.1,0.5,0.3c1.4,1.5,2.5,3.2,3.2,5.3c0.3,0.8,0,1.2-0.8,1.3c-1.8,0.1-3.7,0.3-5.5,0.7
	c-2.9,0.6-3.9,1.7-4.9,3.6c-0.4,0.8-0.7,1.4-0.7,1.8c1,0.1,2.2,0,3.9-0.3c1.4-0.2,2.8-0.6,4-1.3c0.8-0.9,1.4-1.8,2.5-2.6
	c0.4-0.2,1.1-0.3,1.4-0.1c3.4,1.5,6.1,4.1,7.6,7.4c0.1,0.4,0.4,0.7,0.6,1c0.3,0.4,0.2,0.5-0.3,0.5c-0.7-0.2-1.4-0.4-2-0.6
	c-0.2-0.1-0.4-0.5-0.6-0.8l-0.6-1.7c-0.3-0.7-0.5-0.7-1.2-0.4l-1.3,0.6c-0.5,0.2-0.7,0.3-0.9-0.3c-0.1-0.8-0.4-1.6-0.6-2.4
	c-0.3-0.9-0.7-1.1-1.5-0.7c-1.6,0.8-2.9,2.2-3.7,3.8c-0.8,1.6-1.1,2.7-0.4,7c0.2,0.8,0.8,1.8,1.6,2.1l7.2,2.2c0.4,0,0.6,0.4,0.1,0.7
	c-0.9,0.6-1.9,1.1-2.8,1.7c-0.4,0.3-0.7,0.1-0.9-0.3c-0.6-1.2-1.7-2.2-3-2.7c-0.5-0.2-0.7-0.1-0.9,0.4c-0.4,0.8-0.7,1.9-1,2.7
	c-0.2,0.4-0.4,0.6-0.8,0.3c-2.1-1.7-4.2-1.8-6.7-1.5c-1.3,0.2-1.8,0.5-1.5,1.8c0.7,3.5,3.7,5.1,6.3,6.2c0.4-0.1,0.7-0.4,0.9-0.7
	c0.4-0.6,0.3-1.1-0.3-1.6c-1-0.9-3.1-1.8-4.1-2.8c-0.2-0.6,1-1,1.7-0.6c1.9,0.8,3.3,2.4,4.8,3.9c0.8,0.7,1.1,0.7,1.4-0.4
	c0.3-0.8,0.6-2.1,0.8-3.1c0.1-0.5,0.4-0.3,0.6,0c0.2,0.7,0.4,1.6,0.4,2.5c0,0.9-0.3,1.7-0.6,2.5c-0.1,0.8-0.8,1.3-1.5,1.1
	c-3.2-0.3-5.6,1.2-7.6,1.3c-0.4,0-1.4-0.3-1.8-0.5c-0.7-0.5,0.3-0.6,0.5-0.6c0.8,0,2.1,0,2.7-0.4c-0.2-0.3-0.5-0.6-0.9-0.8
	c-1.8-1.5-3.8,0.1-5.3,0.9c-0.9,0.5-0.9,0.6-0.6,1.5c0.6,1.4,1.5,1.9,2.9,1.9c0.8,0,1.5,0.1,2.3,0.1c0.4,0,0.8-0.1,1.1-0.3
	c1-0.4,1.9-0.9,2.9-1.3c1.2-0.2,1.1,0.4,0.6,1l-2.4,1.5c-0.2,0.1-0.5,0.2-0.7,0.4c-0.3,0.2-0.7,0.7-0.7,0.8c0.1,0.3,0.5,0.6,0.9,0.8
	c1.1,0.3,2.2,0.5,3.3,0.7c1.7,0.3,2.4-0.1,2.9-1.8c0.2-0.9,0.6-1.8,1-2.7c0.3-0.5,0.6-0.6,0.9-0.1c1.2,2.2,2.4,4.3,3.6,6.4
	c0.2,0.5,0,0.7-0.4,0.7c-2.7-0.3-5.4-0.6-8-1c-0.9-0.1-1.8-0.7-2.7-1.1c-1.3-0.7-2.8-1.1-4.4-1.2c-1.3,0-2.1,0.8-1.7,2.1
	c0.6,1.8,1.3,3.8,2.1,5.6c0.5,1.3,1.8,1.7,3.1,1.8c0.7,0.1,0.4-0.4,0.3-0.7l-2.2-4.8c-0.3-0.8-0.1-0.9,0.4-0.3
	c1.2,1.8,2.5,3.6,3.6,5.4c0.7,1.2-0.1,1.5-1,1.5c-2.8-0.3-5.4-1.2-8-2.3c-0.3-0.1-0.7-0.7-0.6-0.9c0.5-0.5,1.1,0,1.7,0
	c0.7,0.1,0.9-0.2,0.7-0.7c-0.3-0.6-0.8-1-1.3-1.3c-1.3-0.7-2.6-1.1-4-1.5c-0.8-0.1-1.4,0.2-1.2,1c0.2,1,0.7,1.8,1.2,2.8
	c0.1,0.3,0.1,0.7,0.1,0.9c-0.5,0-1.1,0.1-3.2-0.7c-2.1-0.9-2.1-1.4-2.1-4c0-0.5,0-1.6,0.1-2.1c0.2-0.7,0.3-0.8,0.9-0.7
	c2.2,0.4,4.4,1,6.5,2.1c0.7,0.3,1.3,0.8,1.9,1.1c0.5,0.2,0.8,0,0.7-0.6c-0.1-0.7-0.5-1.4-1.2-1.7c-2.3-1-4.6-2.1-6.8-3
	c-0.5-0.2-0.7-0.4-0.4-1c0.9-1.5,1.4-3.2,1-5.1c0-0.1,0.2-0.3,0.4-0.5c0.6,0.2,1,0.7,1,1.3c0.2,1.6,1.3,2.7,2.3,3.8
	c2.1,2.2,2.1,2.2,5.1,1.5c0.4-0.1,0.7-0.3,1-0.6c-0.3-0.2-0.6-0.6-1-0.8c-0.5-0.3-1.2-0.4-1.8-0.7c-2-0.7-2.6-2.2-1.9-4.3
	c0.7-1.9,1.3-3.8,1.9-5.8c0.2-0.9,0.3-1.9,0.3-2.9c0-0.5,0.4-0.5,0.7-0.6l4.3-0.3c1.1-0.1,2.4-1.4,2.8-2.1l1.5-2.4
	c-0.8-0.7-2-0.8-3-0.4c0.3-1.1,0.8-2.1,0.8-3.1c0-0.7-0.1-1.5-0.4-2.2c-0.3-0.7-0.7-0.8-1.3-0.4c-1,0.9-1.9,1.9-2.3,3.4
	c-0.3,1.4-0.9,4-0.6,4.5c0.7-0.5,1.5-1.2,2.1-1.3c0.3-0.1,0.8,0,1,0.2c-1,0.9-2.1,1.7-3.2,2.2c-0.8,0.4-1.1-0.1-1-0.9
	c1-3.6,0.4-3.9,0.1-5.7c-0.5-2.2-1.5-4.3-2.7-6.2c-0.4-0.5-1-0.3-1.8,0.7c-1.3,1.6-1.7,3-2.4,5.7l-0.1,0.6l-1,0.8l-0.4-0.5
	c0.4-1.3,0.7-2,0.7-3c0-1.3-0.5-2.1-1.4-2.8c-1,0.7-2,1.5-2.2,1.9c-0.6,1-0.6,2.2,0.1,3.2c1.1,1.8,0.9,3.7,0.6,5.9l-0.3-0.1
	c-0.1-1.4-0.4-2.8-0.7-4.2c-0.2-0.9-0.8-1.6-1.3-2.4c-0.5-0.7-0.9-2.2-0.5-2.8c0.6-1,2.3-1.5,3-2.4c0.7-1,0.4-1.5,1.2-2.4
	c0.5-0.6,1.7-1.9,2.5-1.5c2.5,1.3,5.2,1.5,7.9,1.2c1.2-0.2,1.5-0.1,1.8-1.3c0.3-1,0.4-0.3,1.4-0.7c1.7-0.6,2.6-2.1,2.6-3.9
	c0-1,0.1-2-0.1-3.1c-0.1-0.9-0.4-1.7-0.7-2.5c-0.2-0.5-0.6-0.4-0.8,0c-0.7,0.9-1.9,2.7-2.5,3.7l-1,1.8c-0.1,0.5-0.4,0.6-0.8,0.1
	c-0.4-0.5-0.9-0.9-1.5-1.3c-0.9-0.6-1-2.4-0.6-3.6c0.4,0.2,0.7,0.7,0.9,1.3c0.4,0.8,0.5,1.7,1.1,1.9c0.8,0.4,1.6-1.3,1.5-2.4
	c0-0.3-0.1-0.6-0.3-0.8c-0.8-1.5-2.8-2.8-4.1-2.8c-1.4,0-2.4,1.8-1.8,3.5c0.2,0.4,0.4,0.8,0.6,1.2c-3.4,1.8-4.3,2.9-5.7,4.5
	c-0.1,0.2-0.3,0.7-0.1,1c0.6,1.2,0.4,1.6-0.9,2.4c-0.6,0.3-1.4,0.6-2,0.8c-0.1,0.1-0.2-0.1-0.4-0.1c0-0.1,0.1-0.2,0.2-0.3
	c0.8-1.9,1.7-3.6,2.5-5.5c0.8-2-1-3.9-2.6-4.5c-1.1-0.4-1.9-0.2-2.7,0.8c-1.8,2.1-2.2,5.7,0.4,9c0.4,0.6,0.3,0.8-0.4,0.8
	c-1.5,0.1-2.9,0.3-4.4,0.4c-1.8,0.1-3.4,0.9-4.5,2.4c-0.3,0.5-0.7,0.6-1.2,0.3c-1.1-0.7-2.1-0.5-3.3,0.1c-1.7,1-3.5,1.6-5.5,1.8
	c-0.2,0-0.4-0.2-0.6-0.4c0.1-0.1,0.3-0.4,0.7-0.5c1.2-0.3,2.1-0.6,3.2-0.9c0.2-0.2,0.3-0.7,0.4-0.9c-0.2-0.3-0.6-0.6-0.9-0.7
	c-1-0.1-2-0.1-3,0c-2.6,0.2-4.6,1.5-6.2,3c-0.8,0.8-0.8,1.6,0,2.2c1.9,1.4,4,2.8,6.6,2.1c1.8-0.6,3-2,4.2-3.3c1-1.1,2.2-2.3,3.4-1
	c1.7,1.9,2,4,4.8,3.6c1.1-0.1,1.5-0.5,1.8-1.5l0.2-1.2c0.1-0.7-0.3-1.1-1.1-0.8c-0.5,0.2-0.9,0.4-1.4,0.6c-0.3,0.1-0.6,0-0.9-0.1
	c0-0.3,0.1-0.7,0.2-0.8c0.5-0.3,1.1-0.6,1.7-0.9c2.1-0.5,4-1,6.1-1.4c0.2,0,0.4,0,0.6,0l-0.2,0.6c-0.7,1.7-1.8,2.2-3.1,2.6
	c-0.2,0.1-0.5,0.5-0.7,1.3c-0.9,2.6-0.3,5.6,1.5,7.7c0.7,0.7,1.5,1.4,2.4,1.9c1.4,0.8,1.8,2.2,2.4,3.7c0.3,0.9,0.7,1.8,1.1,2.7
	c-1.2,0.8-2.1,1.8-2.8,3c-0.3,0.3-0.5,0.2-0.7-0.1l-0.8-2c-0.7-1.7-1.9-2.9-3.9-3c-0.7-0.1-1.4-0.2-2.1-0.3
	c-0.8-0.1-1.3,0.3-1.6,1.2c-1.1,3.3-0.1,6.2,3.1,8c-2.6,0.7-4.6,1.7-6,3.5c0.1,0.5,0.9,1.2,1.9,1.6c2.5,1,5.1,0.9,7.4,0.1
	c1.4-0.5,1.4-0.2,1.7,0.8l0.7,3.1c0.1,0.7-0.3,1.2-1,0.9c-3.8-1.1-8.3-2.9-11.6-5.1c-1.4-0.6-2.8-1-4.3-1.3
	c-0.5,0.3-0.9,0.7-1.4,0.6c-1.4-0.4-2.8-0.9-4.1-1.5c-0.7-0.4-0.7-0.6,0.1-0.7c1.3,0,3.6,0.6,4.8,0.6c1.2-0.4,1.2-0.6,0.4-1
	c-2.8-2.2-6-1.7-9.1-1.2c-1.1,0.2-1.2,0.8-0.6,1.7c4,4.6,7,4.5,12,4c3.2,2,6.4,3.9,10.2,5.1l0.1,0.5c-2.7,0.2-5.2,0.6-7.6,1.1
	c-1.2,0.2-1.5,1-0.8,2.1c1,1.6,2.6,2.4,4.4,2.8c1.3,0.4,2.6,0.3,3.9-0.2c1.5-0.7,2.5-1.9,3.9-2.7c0.8-0.4,2.2,0.1,3.1,0.3
	c1.3,0.4,2.5,1,3.8,1.1c5.2,0.7,10.6,1.2,15.4,0.8c-0.6,1.1-1,2.2-1.4,3.3c-0.3,0.7,0,0.8,0.7,0.7c1,0,2-0.6,2.4-1.4
	c0.1-0.8,0.1-1.5,0.2-2.3c0.1-0.4,0.2-1,0.5-1c0.2,0,1.4,0.2,1.3,0.5c-0.4,1.2-0.8,2.1-1.3,3.3c0.4,0.1,0.9,0.2,1.4,0.2
	c1.9,0,2.2-0.3,2.1-2.2c0-0.6-0.1-1.1-0.2-1.6c-0.2-1.5,0.1-2.4,1.3-3.1c1.2-0.6,2.5-0.4,3.7-0.3c3.8,0.7,7.5,2.3,10.5,4.8
	c1.5,1.2,0.2,2.9,0.2,5.2c0,1.5-0.3,2.9-0.3,3.7c0.1,1.2,0.6,1.8,1,2.2c1.3,1,2.8,2,4.2,3c1.5,0.9,2.2,1.5,3.9,2.1
	c0.4,0.1,0.9,0.1,1.3,0.1c0.1-0.6,0.1-1.2-0.1-1.8c-0.8-0.6-2-0.8-3.3-1.3c-0.2-0.1-0.5-0.4-0.6-0.7c0.3-0.3,0.6-0.5,1-0.6l2.2-0.4
	c0.1-0.1,0.4-0.3,0.5-0.5c-0.1-0.2-0.3-0.4-0.4-0.5c-0.9-0.3-2.1-0.5-2.8-0.7c-0.3-0.1-0.4-0.4-0.7-0.6c0.3-0.3,0.7-0.5,1.1-0.6
	l2.2-0.3c0.2-0.1,0.4-0.2,0.6-0.4c-0.1-0.2-0.2-0.5-0.4-0.6c-0.4-0.2-2.7-1-3-1.3c-0.2-0.2-0.2-0.5-0.3-0.8c0.3-0.1,0.7-0.3,1-0.2
	l1.8,0c0.3,0,0.6-0.1,0.8-0.4c-0.1-0.2-0.3-0.4-0.5-0.6c-0.9-0.5-1.2-0.9-2.2-1.4c-0.4-0.3-0.7-0.5-0.8-1.1c0.4-0.1,0.8-0.1,1.3-0.1
	c0.7,0.2,1,0.4,1.8,0.5c0.2,0.1,0.5,0,0.8-0.1c0-0.2-0.1-0.4-0.2-0.5c-0.3-0.3-0.6-0.4-1-0.7c-0.5-0.3-1.4-1.2-1.9-1.6
	c-0.1-0.1-0.1-0.5-0.1-0.7h0.5c0.7,0.1,1.7,0.4,2.2,0.5c1,0.2,0.9,0,0.4-0.7c-0.6-0.5-1.3-0.9-1.8-1.5c-0.1-0.2-0.1-0.6-0.1-0.9
	c1,0.1,1.9,0.5,2.8,0.5c0.1-0.1,0.1-0.3,0.1-0.5c-0.2-0.6-0.4-1.1-0.7-1.6c-0.2-0.7,0.1-0.9,0.6-0.7c0.7,0.3,1.7,0.8,2.4,1
	c0.3,0.1,0.7,0,1-0.1c-0.3-0.7-0.7-1.2-1.2-1.8c-0.1-0.2,0-0.4,0.2-0.6c1.1,0.3,2.3,1.1,3.3,1.4c0.5,0.2,0.8,0,0.9-0.2
	c0.1-0.3-0.7-1.1-0.7-1.4c0-0.2,0.1-0.3,0.2-0.4l1.9,0.6c1.4,0.4,2.2,0.5,2.4,0.2c0.3-0.1,0-0.7-0.4-1.5c1.1-0.1,1.3,0.4,3.2,0.8
	c0.7,0.2,11.1-1.3,15.4-2.6c1.7-0.5,3.6-1.4,5.2-2.1l0.5,0.1c1.2,3.1,3.7,4,6.3,4.3l2.4,0.1c0.7,0,0.9-0.2,0.7-0.9
	c-0.6-2.5-2-4.8-3.9-6.6l-1.6-1c-0.7-0.7-0.6-1.6,0.1-2.2c1.3-0.9,3.1-1.8,4.4-2.6c1.9-1.2,2.6-3.2,2.5-5.2c0-0.5-0.3-1-0.7-1.3
	c-0.4,0.1-0.7,0.4-1,0.7c-0.5,1.1-1.1,2-1.5,3c-0.4,0.2-0.8,0.3-1.1,0.4c-0.1-0.4-0.3-0.7-0.2-1c0.6-1.7,2.1-3.1,3.1-4.2
	c0.4-0.7-0.2-1-0.5-0.9c-1.1,0.2-2.3,0.7-3.2,1.6c-2.1,2.6-3.6,5.7-4.4,9.1c-0.2,0.9-0.6,1.2-0.8,2c-0.4,1.2-0.3,1.5,0.7,2.3
	c1.5,1,3.5,1.9,5,2.9c0.6,0.7,0.3,0.9-0.3,0.9c-1.6,0-3.1-0.7-4.2-1.9c-0.5-0.6-1-1-1.7-1.1c-1.5,0.4-3.6,1-5.1,1.2
	c-0.9,0.2-1.6,0.5-2.1,1.4c-0.3,0.7-0.9,0.8-1.7,0.6c-1.1-0.3-2.2-0.7-3.3-1c-1.9-0.3-3.7-0.2-5.5,0.4c-0.7,0.1-0.9-0.1-0.7-0.8
	c0.2-0.9,0.5-1.8,0.7-2.7c0-0.4,0.1-1-0.3-1.2c-0.4,0.2-0.9,0.3-1,0.5c-0.6,0.9-1,1.8-1.6,2.7c-0.4,0.7-0.5,0.7-1.3,0.4
	c-1.1-0.5-2.2-1.2-3.1-1.9c-0.7-1.2-1.5-2.2-1.9-3.2c-0.1-0.3,0.3-0.5,0.6-0.5c0.8,0.7,1.8,1.5,2.6,2.2c0.5,0.6,0.7,1.1,1,1.8
	c0.1,0.2,0.9,0.1,1-0.1c0.1-0.3,0.2-0.7,0.4-1.3c0.3-1.1,0.1-2.6-0.9-3.6c-1.3-1.3-2.1-1.5-3.8-2.7c-2.1-1.4-2.4-1.3-3.2,0.1
	c-0.6,1.2-1,2.4-1,3.9c0.6,3.4,1.4,4.8,5.4,6.8c0,0.2-0.1,0.4-0.3,0.6c-0.3,0.2-0.4,0.3-0.9,0.3c-1.5,0-3.5-0.1-5.1-0.2
	c-0.4,0-0.7-0.2-0.8-0.4c-1.3-5-0.6-10.4,1.8-14.9c0.2-0.5,0.6-0.8,1-1.1c0.9-0.4,2.2-1,3.1-1.4c0.5-0.2,0.7-0.1,1,0.4
	c0.4,1.3,0.5,2.3,0.6,3.4c0.1,0.7,0.1,1.4,0.4,1.5c0.7,0.3,1.3-0.3,1.6-0.8c1.3-2,1.6-4.3,0.7-6.7c-0.1-0.2,0.1-0.7,0.4-0.8
	c2.8-1.1,5.4-2.3,8.3-3.4c1.6-0.1,3.6,0.1,6.5,0.5c0.5,0.1,1.5,0.9,2.5,1.5c-1.3,0.7-3.2,2.1-4.6,3.3c-0.4,0.4-0.8,0.9-0.5,2
	c1.1-0.1,1.7-0.4,2.5-0.6c1.3-0.4,2.1-0.6,3.1-0.6c0.3,0,0.6,0.1,0.8,0.1c0,0.3-0.2,0.6-0.4,0.9c-0.4,0.3-0.9,0.3-1.3,0.5
	c-0.4,0.3-0.8,0.7-0.6,1.2c0.2,0.3,0.7,0.7,1.1,0.7c1.3-0.1,2.6-0.2,3.9-0.7c0.6-0.5,2.9-3.6,1.6-3.8c-0.7-0.1-2.4-0.3-3-0.6
	c0.1-0.4,0.4-0.8,0.8-1c0.7,0.1,1.5,0.3,2.7,0.4c1.8,0.2,3.7,0.1,5.4-0.2c0.7-0.3,1-0.6,0.7-1c-1-2.1-2.8-3.7-5.1-4.4
	c-1-0.3-2.2-0.1-3.3-0.1L129,274c-0.2,0-0.4-0.2-0.6-0.3c0.2-0.1,0.4-0.3,0.5-0.4c0.8-0.5,1.8-0.9,2.6-1.5c1.3-0.9,2.1-2.1,2.4-3.7
	c0.1-0.3,0.1-0.6,0-0.8c-0.8-3.1-2.5-5.3-6-5.7l-1.7-0.3c-0.7,0-0.9,0.2-0.9,0.8c0,1.1,0.1,1.7,0,2.8c0,0.5,0.3,0.7,0.9,0.8
	c1.6,0.3,3.2,0.7,4.7,1.4c0.9,0.4,1.1,0.9,0,1.8l-2.5,1.8c-0.4,0.3-0.6,0.1-0.7-0.4c-0.1-0.7-0.1-1.4-0.2-2
	c-0.1-0.2-0.2-0.5-0.4-0.6c-0.6,0.1-1.1,0.5-1.3,1.1c-0.3,0.9-0.5,1.7-0.7,2.6c-0.1,1.1-0.9,1.9-1.9,2.2c-0.5,0.1-1-0.1-0.9-0.5
	c0.1-0.6,0.2-1.1,0.4-1.7c0.8-1.9,1.2-3.6,1.1-5.4c-0.2-1.3-0.3-2.6-0.3-3.8c0-0.5,0.3-1,0.8-1.2c1.5-0.6,2.9-1.2,4.5-1.7
	c0.6-0.2,1,0,1.4,0.5l3.2,3.7c0.8,0.9,1,0.9,1.8-0.1c0.6-0.9,1.4-1.8,2.4-2.4c0.6-0.3,0.6-0.8-0.1-1c-1.2-0.4-2.4-0.7-3.6-1.1
	c-0.3-0.1-0.6-0.1-0.9-0.2c-0.2-0.1-0.4-0.3-0.4-0.5c0-0.1,0.2-0.4,0.4-0.5c2.3-0.8,4.2-1.5,6.2-2.4c0.6-0.2,0.8-0.7,0.7-1.3
	c-0.1-0.7-0.3-1.4-0.4-2.1c-0.1-0.7-0.6-1.2-1.3-1.3c-2.8-0.3-4.4,0.5-6.3,2.4c-0.4,0.4-0.6,1-0.4,1.5c0.3,0.1,0.6,0.1,0.9,0
	c1-0.3,2.1-0.7,3-1.3c0.5-0.5,0.9-1.1,1.2-1.1c0.1,0,0.4,0.7,0.5,1c-0.3,0.3-0.5,0.7-2.7,1.6c-3.9,1.8-7.9,3.2-12.1,4.2
	c-0.6,0.1-0.5-0.3-0.4-0.5c0.8-1.4,1.6-2.8,2.5-4.2c0.8-0.5,1.1-0.3,0.7,0.5c-0.3,0.6-0.6,1.2-0.9,1.7c-0.1,0.5,0.1,0.7,0.5,0.6
	c1.9-0.5,3.3-2.2,3.5-4.1c0-0.7-0.3-0.9-1.1-0.9c-1,0.1-2.2,0.1-3.2,0.5c-2,0.5-3.1,1.8-3.8,3.6c-0.3,0.8-0.4,1.7-0.6,2.5
	c-0.2,0.9-1,1.3-1.8,1.7c-1.3,0.8-2,0.7-3.2,0.9c-1,0.1-2,0.4-2.9,0.7c0-0.3-0.1-0.6,0-0.8c0.7-1,1.3-2.1,1.9-3
	c1-1.4,0.7-2.2-0.8-2.8c-2.5-0.8-5.2,0.1-6.6,2.3c-0.8,1.3-1.4,2.9-2,4.3c-0.4,0.9,0,1.4,0.9,1.6c1.4,0.2,3.1-0.3,4.4-0.6
	c-0.1,0.4-0.1,2-0.3,2.4l-0.8,1.8c-0.5,0.9-1.1,1.2-2.1,0.7c-1.5-0.7-2.9-1.5-4.3-2.4c-1.5-1-3.3-1.6-5.2-1.7c-0.2,0-0.4,0-0.5,0
	c-0.6-0.1-0.7-0.4-0.3-0.7c0.5-0.4,0.5-0.9,0.2-1.5l-1.9-3.6c-0.4-0.7-0.7-1.4-0.9-2.1c0.4-0.1,2.2,0.5,2.2,0.8
	c0.1,1.9,0.7,3.3,1.7,4.6c0.8,0.8,1.5,0.3,1.6-0.5c0.1-1-1.3-2.7,0.6-6.5c0.7-1.7,3.1-4.6,4.7-4.6c0.8,0,1.5,0.4,2,1.6
	c0.3,0.6,0.5,1.9,0.7,2.4c0.2,0.6,0.5,0.8,1.1,0.8c1.5-0.2,3.6-1.1,5.3-1.3c1.1-0.1,1.9,2.5,2.4,3.5c0.8,1.4,1.2,2.7,2.2,1.1
	c1.6-2.2,2.4-4.7,4-5.5c2.2-1.1,4.6-1.5,7-1.2c0.7,0.1,1,0.4,0.8,1.1c-0.1,0.4-0.2,0.9-0.3,1.4c-0.1,0.5,0.3,0.7,0.9,0.3
	c0.8-0.5,1.4-1.1,2-1.8c1.4-1.5,2.9-2.3,5.7-2.3c1.3,0,2.4,0.3,3.6,0.7c0.9,0.3,1,0.5,0.8,1.4l-0.8,2.7c-0.3,1.2-0.1,1.4,1,2
	c1,0.6,1.7,1,2.3,1.7c0.4,0,0.9-0.1,1.2-0.4c1.1-2.4,2.9-4.4,5.2-5.8c0.9-0.5,1.1-0.4,1.5,0.4c0.7,1.9,1.2,3.5,1.3,5.3
	c1-1.2,2.2-2.4,3-3.3c3-2.8,6-2.8,10-1.8c1,0.3,0.2,1.3-0.4,2.1l-0.8,1.2c-0.3,0.4-0.4,0.4-0.8,0.1c-0.5-0.6-1-1.6-1.5-2.1
	c-0.9-0.9-2.5-0.4-3.6,0.3c-2.2,1.3-4.1,3.2-5.4,5.5c-1.3,2.1-2.9,3.9-4.7,5.6c-0.7,0.3-0.7,0.2-0.6-0.5c2-3.1,3.2-6.6,3.3-10.3
	c-0.7-0.1-1.4,0-1.9,0.4c-2.8,1.5-4.2,7.1-4.6,10.7c-0.1,0.8-0.1,1.4-0.8,1.8c-1.2,0.7-1.6,1-2.8,1.5c-0.3,0-0.4,0-0.7,0
	c0.5-2.4,0.1-4.2-1.3-6.5c-0.2-0.4-0.6-0.7-1.1-0.5c-0.3,0.2-0.6,0.4-1.2,0.9c-2.2,2.1-3.4,5-3.3,8c0,0.5,0.5,0.5,0.9,0.3
	c0.5-0.4,0.8-0.7,1.1-1.3c0.7-1.2,1.3-2.4,1.9-3.5c0.1-0.3,0.4-0.5,0.7-0.6c0.1,0.3,0.1,0.6,0.1,0.8l-0.5,2.2
	c-0.4,1.2-1.2,2.2-2.2,3c-0.2,0.3-0.3,0.8,0.2,0.8c2.4,0.1,3.8-0.1,5.8-1.3c2.1-1.1,3.6-2,4.5-1.9c0.7,0.1,3.9,1,4.2,1.3
	c-0.2,0.3-0.4,0.4-0.6,0.7c-0.4,0.3-1.9,1.1-2.6,1.7c-1.1,0.9-1.5,1.3-1.3,3.2c0.1,0.8,0.3,1.6,0.4,2.4c0.1,0.3,0.3,0.6,0.4,0.7
	c0.3,0,0.6-0.2,0.7-0.4l2.7-3.4c0.2-0.1,0.4-0.2,0.6-0.3c0,0.2,0.1,0.4,0,0.5c-0.2,1.4-0.9,2.4-1.7,3.4l-0.5,0.7
	c-0.7,1-0.8,1.2-0.1,2.2c0.8,1.2,1,2.6,0.7,3.9c-0.2,1-0.5,2.4-0.7,3.8c-1.8,0.8-3.5,1.9-5,2.9c-0.9,0.8-1.1,1.5-1.1,1.7
	c0.4,0.5,0.9,0.6,1.7,1c1.2,0.4,3.5-0.1,3.9-1.4c0.1-0.3,0.3-0.9,0.3-1.4c0.4,0.1,0.8,0.1,0.9,0.4c0.4,1.4,0.8,2.3,1.7,3.2
	c-0.1,0.4-0.3,0.6-0.7,1.2c-0.5,0.9-1,1.6-1.7,1.5c-0.3-0.1-0.6-0.1-0.9-0.1c-0.6,0-1.1,0-1,1c0.1,1.3,0.3,1.8,0,3.2
	c-0.1,0.7-0.4,1.5-1.1,1.5c-1.7-0.1-2.9-1.4-4.6-1.4c-1.1,0.1-2.2-0.1-3.2-0.6c-0.9-0.4-1.5-1-1.9-1.2c-7,1.1-14.8,2.6-20.8,3.9
	c-0.7,0.1-0.6,0.5-0.7,1.2c-0.3,1.5-0.9,3-1.2,4.6c-0.1,0.3,0.3,0.6,0.4,0.8c0.2-0.1,0.4-0.3,0.6-0.5c0.4-0.5,0.6-1.2,1-1.7
	c0.7-0.8,2.6,0.1,2.9,1.1c0.3,0.6-0.6,1-0.6,1.7c0.1,0.6,1,1.2,1,1.9c0,0.7-0.3,1.1-0.4,1.5c2.6,1.7,3.2,3.1,3.3,5.2
	c0.1,0.7,0.1,1,0.4,1.4c0.4,0.4,1,0.9,1.2,1.2c1.2,1.4,2.4,3.7,3.2,3.9c0.4,0.2,1.5,0.2,2.3,0.2l0.1,0.4c-0.3,0.7-1,1.4-1.7,1.6
	c-1.9,0.6-2.8-2.2-3.9-3.9c-0.5-0.8-1-1.5-1.6-2.1c-0.8,0.9-2.2,4.6-2.1,6.3c0.5,2.4,1.9,4.7,2.8,6.4c0.7,1,1.9,1.4,3.1,1.9
	c1,0.4,1.8,0.5,2.8,0.2c0.5-0.1,0.7-0.1,1-0.4v-2.1c0.2-3.9,0.9-7.7,1.1-11.1c0-0.9,0.7-2.4,1.8-3.2c1.2-0.8,1.7-1.9,1.6-3.4
	c0-0.5,0.1-0.9,0.3-1.4c0.4-0.8-0.4-0.8-1.1-0.9c-0.8-0.1-1-0.4-0.6-1.2c0.7-1.3,1.9-2.4,2.7-3.7c0.6-0.9,0.8-1.5,1-2.1
	c-0.2-1.1-0.1-2.7,0.9-2.7c3.5-0.4,5-0.1,7.2,1.6c0.1,0.2,0.2,0.6,0.2,0.8c0,0.3,0.6,0.5,1.8,1.7c0.9,0.9,1.8,3.3,0.3,7
	c0.8,0.4,0.7,1.2,0.7,2c-0.1,0.7,0.2,0.8,0.8,1.1c0.8,0.3,1.3,0.8,2,2.5c0.6,1.6,2.4,6,3.5,16.7c-0.2,2.9-0.7,5.8-1.4,8.5
	c0.7,5.1,1.5,11.4,2.2,20c0.5,8.2,0.7,12.3,0.8,15.7c1.5,0.1,1.9,0.4,2.2-0.8l0.3-1.1c0.3-0.8,1.1-0.5,1.1-0.1l0.9,2.6
	c0.2,0.8,0.4,1.2,0.7,2c1,1.3,1.4,0.1,1.4-0.8c0.1-0.8,0.1-1.5,0.1-2.3c0.1-1,0.7-1,1-0.4l1.3,3c0.5,1,1,1.3,1.2,0.7
	c0.1-0.9,0.2-2.4,0.1-3.6c-0.2-0.7-0.5-1.5-0.6-2.1c0-0.8,0.7-0.7,0.8-0.4c1.6,1.9,3.1,3.9,4.5,5.9c0.8,0.5,1.3-0.4,1.1-0.7
	c-0.1-0.3-0.5-0.7-0.5-1.4c0.1-1.1,1.1-0.6,1.3-0.2c0.9,0.9,1.5,2.1,2.1,3.1c0.2,0.2,0.5,0.3,0.8,0.4c0.2-0.3,0.3-0.7,0.2-1
	c-0.1-0.3-0.4-1.1-0.6-1.5c0.4-0.6,1.2,0.2,1.4,0.4c0.3,0.3,0.6,0.7,0.9,1.3c0.5,0.8,1.3,1.4,3.2,1.7l0.1,0.5
	c-0.2,0.2-0.7,0.4-1.8,0.6c-2.3,0.4-4.6,0.5-6.9,0.1c-1.8-0.2-3.6,0.2-5.1,1.1c-1.1,0.6-2.2,0.5-3.5,0.5c-2.5-0.1-5-0.1-7.5-0.2
	c-5.3-0.1-7.9,0.9-13.9,1.2c-1.9,0-6-1-6-2.2c0-0.9,0.5-1.6,0.5-2c0-0.6-0.1-0.7-0.6-0.8c-4.3-0.7-8.4,0.2-12.3,0.9
	c-3.3,0.5-5,0-6.7-1.4c-1-0.7-1.8-1.5-2.4-2.5c-1.9-2.4-4.1-4.5-6.6-6.3c-2.8-2.2-6.3-6.3-8.5-9c-0.5-0.6-1.4-3.4-1.7-4.2
	c-0.4-1.2-0.5-2.4-0.4-3.7c0.3-0.3,0.7-0.6,1.1-0.6c1.8-0.1,4.2-1,4.2-1.5c0.2-0.4-0.1-0.8-0.5-0.7c-1,0.2-2.3,0.2-3.3,0
	c-0.5-0.1-1.2-0.3-1.5-0.6c0.4-0.4,0.6-0.7,1-0.9c1.6-0.2,3-0.8,4.3-1.7c0-0.2,0-0.4-0.1-0.5c-1.2-0.1-2.1-0.1-3.5-0.4
	c-0.5-0.1-1-0.4-1.3-0.8c0.2-0.4,0.6-0.7,1-0.8c1.5-0.5,2.7-1.3,3.7-2.2v-0.6c-1.4,0-2.8-0.2-4.2-0.4c-0.6-0.3-0.7-0.4,0-1.2
	c1-0.2,2.9-0.4,3.9-0.7c0.7-0.4,0.6-1-0.1-1.3c-1.2,0-2.4-0.2-3.6-0.4c-0.7-0.7-0.8-0.7,0.1-1.2l3.2-0.7c1.2-0.4,1-1.2,0-1.5
	c-1-0.1-1.6-0.3-2.6-0.5c-1.3-0.6-1.3-0.7-0.2-1.1l2-0.6c0.6-0.1,1.1-0.4,1.2-0.8c0-0.1,0-0.3-0.1-0.4c-0.8-0.2-2.6-0.1-3.4-0.3
	c-0.3-0.1-0.6-0.4-0.7-0.7l0.7-0.4c1-0.2,2-0.6,2.7-1c0.1-0.2,0.2-0.5,0.3-0.7c-0.2-0.1-0.3-0.2-0.5-0.3c-1-0.3-1.6-0.5-2.6-0.9
	c-0.6-0.7-0.5-0.8,0.2-1.1l1.4-0.4c-0.2-0.5-0.4-1-0.7-1.4c-0.1-0.2-0.3-0.4-0.5-0.5c-0.8-0.5-2-1-2.9-1.6c-1.7-1-3.4-2-4.7-3.3
	c-1.7-1.5-3-3.5-3.5-5.7c-0.3-1.4-0.3-2.9,0-4.2c0.1-1,0.7-2.1,1.3-3.2c0.2-0.4,0.4-0.7,0.1-1c-0.8-1.1-1.5-1.8-2.6-2.8
	c-0.5-0.4-1-0.7-1.6-0.8c-3.3-0.6-5.3-1.3-6.8-1.1c-0.6,0.5-1,1.2-1.3,1.9c0.3,1.1,0.8,2.8,0.9,4.3c1.2,0.1,2.7,0.5,4.2,1.4
	c1.2,0.8,1.5,1.2,1.9,2.7c1,3.3,1.3,7.6,2,12.1c0.6,4.3-1.6,7.9-6,8.1c-2.4,0.1-4.3-0.4-5-2c-0.8-2.3-1.4-4.2-2.1-6.5
	c-3.1,0.8-6.4,1.8-9.7,3.5c-2.9,1.4-5.3,2.7-8.4,4c-5.9,2.4-12.3,3.9-18.1,3.9c-3,0-6-0.5-8.8-1.5c-2.1-0.8-2.9-1.7-3.3-4.3
	c-0.3-2.3-0.4-4.6-0.1-6.8c0.3-2.2,0.6-3.8,2.1-7.9c0.7-1.8,1.5-2.7,2.9-3.4c2.4-1.1,5-1.7,7.7-1.5c0.9,0,2.1,0.2,2.9,0.5
	c1.7,0.6,1.9,1.9,2,3.6c0,1,0.1,2,0,2.9c-0.1,0.8-0.1,1.1-0.1,1.4c2.1,0.3,6.5,0.2,8.6-0.3c1.7-0.3,2.4-0.6,5.5-2.1
	C59.2,320.5,62.1,318.3,65.5,316.5L65.5,316.5z M131.9,353.5c0.2,0.4,0.7,2.5,0.7,3.2c0,1.7-0.1,3.3-0.3,5.9
	c-0.3,3.4,0.1,6.9-0.4,10.3c-0.2,1.7-0.6,4.2-0.5,6.5c0,0.9,0.2,1.2,0.7,1.3c1.7,0.4,2.8,0.6,3.6,0.6c2.6,0,4.2-1.2,4-2.6
	c-0.8-3.1-1.2-6.3-1.2-9.5l0.7,0c0.9,3.9,1.7,5.8,2,7.8c0.4,1.8,0,5,0.4,6.6c4.3,0.5,9.3,0.1,10.9-0.3c0.4-3.5,0.3-7.1-1.3-8.4
	c-0.6-0.6-2.5-2-3.4-2.6c-1.8-1.4-3.4-3.1-4.6-5.1c-1.8-2.9-2.3-3.8-3.9-6.6c-1.5-2.6-2.5-4.9-3.5-6.4c-0.7-1-1.2-1.7-1.5-1.9
	c-1.3-0.4-2.6-0.6-3.9-0.7c-1.8-0.2-3-0.4-4-1.5c-0.9-0.9-1.3-1.6-0.7-2.8c0.3-0.6-0.1-1.1-0.5-1.6c-0.5-0.7-0.4-1.4,0.3-1.9
	c1.4-1.4,3.2-2.4,5.1-2.9l-0.3-1.4c-0.8,0.1-1.8,0.4-3.4,0.4c-2.3,0-4.4-1-5.2-4c-0.3-1.1-1.6-4.1-2-5.5c-0.3-0.8,0-1.9,0.4-3.1
	c-0.7-0.9-1.3-1.9-2-2.7c-1.2-0.5-2.7-1-3.7-2.3c-0.4-0.5-0.6-0.5-1-0.3c-0.3,0.3-0.4,0.6-0.9,1c-0.4,0.4-1.3,0.4-2.2,0.1
	c-0.8-0.3-1.3-1.2-1.2-2c0.1-1.1,0.6-2.1,0.1-2.5c-0.9-0.9-1.7-1.9-0.7-2.7c0.3-0.2,0.9-0.2,1.3-0.4c1.1-0.6,1.6-1.9,1.3-3.1
	c-0.2-0.9-0.7-1.3-1.6-1.4c-1.3-0.1-1.9-0.7-1.9-1.6c0-1.1,1-1.6,1.9-1.4c0.4,0.1,0.9,0.3,1.2,0.5c0.1,0.4,0.3,1,0.6,1
	c1.5-0.2,2.7-1.7,2.7-3.2c0-0.5-0.3-0.7-1.3-0.5c-1.8,0.3-4,1-6.2,1.7c-1.2,0.4-1.4,1.4-0.7,2.5c0.2,0.2,0.4,0.5,0.6,0.8
	c0.3,0.4,0.1,0.8-0.3,1l-0.5,0.4c-0.7,0.5-0.7,1-0.3,1.8c0.1,0.3,0.3,0.5,0.5,0.7c0.5,0.4,0.5,0.8,0,1.4c-0.6,0.6-0.7,1.5-0.4,2.3
	c0.2,0.6,0.7,4.2,0.7,4.9c0,1.9,0.3,3.7,0.2,5.5c-0.1,1.3,0.6,2.4,1.8,3.8c1.3,1.5,2.3,2.8,4.1,4.6c2.1,2,3.3,4.4,3.5,7.4
	c0.1,1.4,0.7,1.9,2.1,2.6c2.8,0.8,3.8,2.4,4.1,4.5c0.6,3.8-1.3,7.5-4.7,7.1c-1.7-0.1-2.6-1.2-2.6-2.1c0-1,0.5-1.9,1.3-2.2
	c0.1-0.1,0.7,0,0.8,0c0.1,0.2,0.1,0.4,0.1,0.6c0,0.2-0.3,0.4-0.4,0.9c-0.1,0.3-0.1,1,0.3,1.4c0.4,0.5,1,0.7,1.7,0.4
	c0.8-0.2,1.3-0.9,1.6-1.6c1.6-2.9,0.8-6.3-2.2-7c-1-0.3-2.4-0.4-3.2,0.1c-1.9,1.2-3.5,1.8-5.1,3.3c-0.3,0.2-0.4,0.6-0.4,0.9
	c0.1,6.3,0.5,12.6,1.3,18.9c0,1.3,1,3,1.4,3.3c1.1-0.8,1.4-1.6,2.4-3.2c0.4-0.3,0.7-0.1,0.8,0.3c0,1.4-0.3,2.8-0.1,4
	c0.1,0.4,0.5,0.7,0.8,0.9c0.7-0.6,0.7-1.5,1-2.2c0.7-0.8,0.9,0.1,1,0.3c-0.1,0.9,0,1.8,0.1,2.2c0,0.4,0.4,0.4,0.7,0.5
	c0.8-1.6,1.8-3,3.1-3.9c0.8-0.6,1.3-0.1,0.8,0.7c-0.8,1.5-1.4,3.1-1.8,4.7c0.3,0,0.5,0,0.8-0.1c0.2-0.1,0.4-0.1,0.5-0.6
	c0.6-1.4,0.9-1.5,1.5-0.5c0.3,0.9,0.7,1.6,1.3,1.9c0.8-0.2,0.9-1.2,1.2-1.9c0.9,0.1,1,1,1.4,1.5c0.3,0.2,2.8,0.3,3.3,0.3l-0.1-1.5
	c-0.1-2.9,0-5.3,0.2-8.2c0.2-3,0.6-6.2,0.7-8.8c0.1-2.2,0.4-5.6,0.6-8.2L131.9,353.5z M173.4,296.9c-0.7-0.1-3.5-0.3-4.2-0.3
	c-0.6,0-2.3,0-2.4,0.9c0,0.2,0.3,0.7,0.7,1c2,1.4,7.7,1.6,10,1.2c0.1-0.5,0-1.2-0.2-1.7c-0.6-1.7-2.6-3.2-4.6-3.8
	c-2-0.5-4.1-0.5-6.1-0.2l-0.4-1c0.7-3,0.6-5.7,0.2-7.9c-0.2-1.2-0.6-1.8-1.2-2.8c-0.4-0.5-0.9-0.5-1.4-0.1c-0.3,0.3-0.7,0.7-1.2,1.4
	c-1.9,2.3-1.8,3.9-1.5,7.4c0.2,0.1,0.4,0.3,1.1,0.3c0.6,0,0.9-0.3,1-1.1c0.1-1.2,0.3-2.4,0.5-3.5c0.3,0.1,0.8,0.4,0.8,0.6
	c0.1,1.8-0.5,3.7-0.9,5.4c0.1,0.2,1.4,0.8,1.2,1.3c-0.1,0.4-2.2,0.9-3.6,1c-0.8-1.3-2-2.2-3.4-2.8c-0.8-0.3-1.8-0.6-1.1-1.2l1.1-0.4
	c1.9-0.8,1.3-1.9,1.2-3.8c-0.1-0.7-0.4-0.9-1-0.9c-1,0.1-1.6,0.1-2.4,0.6c-1.5,0.9-2.6,2.4-3.6,3.5c-0.2,0.2-0.6,0.1-1,0.1l1.8-5.2
	c0.2-0.5,0.4-1.1,1-1c3,0.7,6,0.1,8.2-2c0.9-1,0.9-1.4-0.3-2.2c-1.8-1.5-4.2-2-6.4-1.4c-0.9,0.4-1.5,0.9-1.6,1.8
	c-0.1,0.6,2.7-0.2,3.6-0.1c0.3,0,0.5,0.3,0.7,0.4c-1.8,0.8-3.8,1.2-5.5,1.6c-0.6,0.1-0.8,0-0.9-0.5c-0.2-0.9,0.1-1.9,0.9-2.4
	c1.3-1.1,2.3-2.4,2.6-4.2c0.2-0.9-0.6-2.4-1-3.2c-0.1-0.2,0.1-0.4,0.1-0.5c1.1,0.3,2.6,1,3.5,1.6c0.5,2.9,2.6,5.2,5.4,6
	c1,0.3,2,0.7,3,1c1,0.3,1.7,0,1.6-1l0-1.4c0.8-0.4,1.8-0.7,2-0.6c1.6,0.2,3.2,1,4.8,1.5c1.1,0.6,0.6,1-0.2,0.8
	c-1.2-0.2-2.4-0.5-3.6-0.8c-0.7-0.1-1.4,0.2-1.5,0.9c0.5,0.9,2.8,1.9,3.6,2.3c1.2,0.4,5.8,1,5.7-0.3c0-1.2-0.2-2.5-0.5-3.7
	c-0.3-1-1.2-1.6-2.1-1.8c-2-0.5-4.1-0.7-6.2-0.7c-0.5,0-1.4,0.3-2.2,0.7l-0.3-1.4c-0.4-1.8-1.3-2.3-2.7-2.8c0.1-0.5,0.1-0.9,0.1-1.5
	c1.2-0.7,2.7-1.8,3.3-2.8c-0.5-0.5-1.4-0.7-1.8-0.9c-1.9-0.7-2.1-1.4-3.3-1.9c-0.9-0.4-1.9-0.7-3-0.7c-1,0-2.2,0.2-2.5,0.6
	c-0.1,0.2,0,0.6,0.5,1c0.8,0.7,2.6,1.1,3.5,1.7c0.5,0.3,0.3,0.4-0.1,0.5c-1.2-0.1-2.3-0.4-3.4-1c-0.6-0.3-0.8-0.6-1.3-0.8
	c-0.8-0.3-1-0.1-1.5,0.9c-0.4,0.7,0.1,1.1,0.7,1.4c2,1.1,3.5,1.8,6,2c0.3,0.3,0.4,0.7,0.4,1.3c-2.5-0.3-3.3-0.4-4.9-0.9
	c-2.5-1.3-4.4-2.4-6.8-3.2c-0.4-0.2-0.6-0.5-0.1-0.8c2.5-1.5,4.9-3.3,7.4-4.7c0.4-0.2,0.9-0.1,1.4,0c1.2,0.2,1.6,0.6,2.9,1
	c0.7,0.3,1.4,0.5,1.5-0.2c0.4-1.8,1-3.2,1.5-4c1.1-1.7,2.7-2.6,4.8-3.9c0.8-2.7,3.3-5.4,4.2-5.4c2.5,0,5,4.6,5.5,6.3
	c0.3,1.2-1.7,2.3-0.3,2.3c1.1,0,2.2,0.2,2.2,1.2c0,1.7-0.5,3.3-1.4,4.8c-1,1.3-1.9,2.7-3.2,3.5l0.1,0.4c2.1,1.6,4.5,2.8,4.5,5.2
	c0,1.3-0.4,2.2-1.1,2.9c-0.6,0.5-1,1-1,1.7c0.1,1.7,0.2,2.6,0.1,4.3c-0.1,1.1-3.5,1.3-4,1.8c0.6,2.8,0.3,5.8-0.9,8.4l0.7,1.3
	c3.4,2.4,3.9,4.6,4.4,6.5c-1,0.9-2.5,1.7-3,1.7c-2.2,0-7.1-1.7-8.1-1.8c-0.4,0.7-0.2,1.3,0.3,2.7c0.4,1.3,1.3,2.1,1.3,3.3
	c0,0.6-0.1,1.5-1.7,1.7c-2.6,0.2-5.2-0.5-7.4-2c-0.4-0.2-0.8-0.5-1.3-0.7c-0.7-0.4-1.7-0.1-1.9,0.7l-0.5,1.7c-0.3,0.9-0.7,1-2,0.7
	c-3.5-0.7-5.2-4.5-5.2-7.9c0.1-0.7,0.7-0.4,0.8-0.1c0.2,1.6,0.9,3.2,1.5,4.6c0.7,1.3,1.5,2,2.9,2.1c0.3,0,0.7-0.5,1-1.1
	c0.7-1.6,1.5-2.6,1.2-4.5c-0.1-0.7-0.3-1.5-0.7-2.1c-0.2-0.3-0.6-0.5-1-0.8c0.2-0.3,0.5-0.6,0.7-0.5c1.5,0.5,2.7,0.5,3.7,0
	c0.6-0.3,0.9-0.7,1.3-1.3c1.3-0.4,3.5-0.8,5.4-1.1c2.5,0,4.7,0.4,6.6,1.2L173.4,296.9z M78.5,357.7c1.3,0,2.9,0.7,2.9,2.1l-0.3,0.7
	c-0.1,0-0.2,0-0.3-0.1c-0.5-1.1-1.3-1.7-2.6-1.4c-1.2,0.2-2.3,0.9-3,1.7c-0.5,0.5,0.5,0.9,1.2,1.2l1.4,0.8c0,0.7-1.9,6-0.9,6.2
	c2.4,0.4,5.5-2.9,5.9-7.5c-0.1-1.7,0.9-2.5,2.7-3.1c2.2-0.8,3.2-1.8,2.8-4.2c-0.2-1.1,0.5-0.8,1.1-1.8l0.7-0.8
	c0.1,0.3,0.4,1.1,0.3,1.5c-0.5,1.9-0.1,3.4,0.8,5.1l1.8,4.6c0.4,0.4,0.8,0.1,1.2,0.6c1.5,3.1,3.2,7.7,5.6,9.6c1.9,1.6,3.9,4.3,5.7,6
	c1,0.9,1.8,3.3,3.1,3.7c1,0.4,0.9,0.8,0.8,1.7c-0.2,1,0.3,1.3,0.7,1.3c0.7-0.1,1.3-0.2,1.9-0.3c1.4,0.3,1.1,1.3,0,1.5
	c-0.7,0.1-1.4-0.1-2.1-0.1c-0.3,0.1-0.5,0.2-0.7,0.3c0.1,0.3,0.2,0.5,0.4,0.7c1.2,0.6,2,0.7,3.1,1c0.2,0,0.4,0.2,0.6,0.3
	c-0.1,0.2-0.3,0.6-0.5,0.7c-0.4,0.1-0.8,0.1-1.3,0c-1-0.2-2-0.7-2.9-1.1c-0.3-0.1-0.5-0.5-0.9-0.7l-0.8-0.2c0,0.3-0.1,0.6-0.1,0.9
	c0.2,0.5,0.7,1.3,0.5,1.4c-0.1,0.1-0.7,0.6-0.9,0.4c-0.8-0.4-1.5-1.3-2.3-1.8c-1-0.6-1.9-0.6-2.8,0c-1,0.7-1.8,1.3-2.8,1.8
	c-1.1,0.7-2.4,1.9-3.7,1.9c-0.7,0-2.6-1.1-3.5-1.4c-1.5-0.5-2.1-0.6-3.7-0.9c-1.4-0.3-2.6,0.2-4,0.7c-1.7,0.5-3.6,0.7-5.5,1.1
	c-1,0.2-2.3,0-3.4-0.1c-1.7-0.1-3.3-0.2-4.9-0.2c-1.1,0-2.3,0.2-3.3,0.6c-0.5,0.1-1,0.2-1.5,0.2c-0.7,0-1.5-0.2-2.1-0.7
	c-0.7-0.5-1.6-0.6-2.4-0.4c-0.8,0.1-2.3,0.4-2.9-0.1c-0.8-0.8-2.6-2.3-3.7-2.1c-3.3,0.5-4.9,2.4-8.1,1.6c-2.3-0.6-3.8-1.1-6-0.4
	c-0.6,0.2-2-0.1-2.6,0c-0.8,0.1-1.1-0.1-1-0.9l0.1-0.4c0.1-0.9-0.7-1.5-1.5-1.2c-0.9,0.3-1.5,1.2-2.3,1.7c-1.6,0.8-3.1,0.5-4.8-0.1
	c-1.2-0.5-2.4-0.3-3.5,0.3c-0.7,0.4-1.9,2.1-2.7,2.1c-0.2,0-0.7-0.5-0.8-0.9v-0.8c0.5-0.7,1.1-1.3,1.8-1.7c2-0.9,4.2-1.2,6.3-0.8
	c1,0.1,2.1,0.3,3-0.1c0.7-0.3,1.5-0.4,2.2-0.7c1.3-0.7,2.4-1.3,3.8-0.7c1-0.5,1.6-0.8,2.1-1.6c0.3-1.3-0.2-2.6,0.1-3.8
	c0.3-1.1,0.7-2.5,1.1-3.6c0.2-0.5,0.6-0.5,1-0.4c1,1.5,2.2,2.9,1.6,4.2c-0.4,1,1.8,1.6,1.4,2.6c-0.4,0.7-0.2,1.2,0.5,1.3l0.5,0.1
	c0.7,0,0.7-0.4,0.7-1.2c0-4.6-1.5-7.7-3-11.3c-0.6-1.3-0.6-2.8,0-4.2l0.9-2.8c0.5-1.3,1.6-2.5,2.9-3c0.1-0.1,0.6,0.1,0.7,0.4
	c2,2.9,2.8,6.3,1.8,9.8c-0.3,1-0.5,2.1-0.7,3.2c-0.1,0.3,0,0.5,0.1,0.8c0.2-0.2,0.4-0.4,0.6-0.6c1-1.5,2-3,2.8-4.6
	c0.8-1.5,2.1-2.2,3.7-2.5c1.8-0.4,2.2-0.1,1.8,1.5c-0.3,1-0.6,2-0.9,2.9c-0.4,1.6-1.5,2.8-2.9,3.6c-1,0.5-1.9,1.3-2.8,1.9
	c-0.3,0.4-0.4,0.4-0.1,0.9c0.3,0.4,0.8,0.1,1.3-0.1c1.6-1.2,3.3-2.1,5-3.1c0.6-0.3,0.8,0,0.7,0.7c-0.1,0.8-0.2,2-1,2.3
	c-0.9,0.3-2.1,0.4-2.9,0.8c-0.5,0.3-1,0.7-1.4,1.2c-0.5,0.8-0.5,1.4-1,2.3c-0.1,0.2,0,0.5,0,0.8c0.3-0.1,0.6-0.1,0.8-0.2
	c1.1-0.8,1.7-1.7,2.7-2.5c0.8-0.6,1-0.6,1.3,0.5c0.1,0.3,0.4,0.6,0.7,0.9c0.3-0.2,0.7-0.4,0.9-0.7c1-1.4,1.6-4.3,2.9-6.2
	c0.2,0,0.5,0.2,0.7,0.2c0.3,0.7-0.1,2.8,0,3.3c0,1.3,0.4,1.6,1.6,1c1-0.5,1.8-1,2.7-1.5c1-0.5,1.8-0.1,1.2,0.7
	c-0.3,0.5-0.7,0.8-1,1.3c-0.1,0.3-0.1,0.8-0.1,1.1c0.3,0,0.7,0,0.9-0.1c0.7-0.2,1.5-0.5,2.2-0.8c1-0.4,2-0.3,3,0
	c1,0.4,2.1,0.6,3.1,0.9c0.8,0.2,1.7-0.2,2.4-0.5c1.4-0.7,2.9-1.3,4.4-1.7c2-0.6,3.9-1.7,5.4-3.1c0.4-0.4,0.9-0.6,1.3-1
	c0.3-0.3,0.6-1.6,0.6-2c0.3-1.1-0.2-3.7,0.1-4.9c0.1-0.3,0.4-0.9,0.5-1.2l0.5,0.1c0.1,0.4,0.3,1.1,0.3,1.4c-0.1,2-0.1,6.4-0.3,8.3
	c0,0.5-0.8,1.2-1.3,1.4c-3.5,1.3-7,2.6-10.5,3.6c-1.6,0.4-3.3,0.2-5,0.2c-1.3,0-2.6-0.2-3.9-0.1c-1,0.1-2.5,1-3.5,1.2
	c-2.9,0.4-5.4,0.3-8.2,0.8c-2.6,0.5-5.2,1.2-7.7,1.9c-0.7,0.2-1,0.4-1.6,0.8c-0.2,0.1-0.3,0.4-0.3,0.7c0.3,0.1,0.5,0.3,0.8,0.3
	c0.7-0.1,1.2,0.1,1.8,0c1.5-0.2,3.1-0.4,4.7-0.6c0.3,0,0.8,0.2,1.1,0.4c0.7,0.5,1.6,0.7,2.4,0.5c1-0.2,1.8,0,2.6,0.6
	c1.4,1.2,1.8,1.2,3.5,0.3c1.3-0.7,2.7-0.7,4.1-0.6c3.2,0.1,6.1,0.6,8.9,1.1c2.2,0.4,4.5-0.5,5.9-2.3c0.8-1,1.6-2,2.2-3
	c0.5-0.7,1.1-1.2,1.9-1.2c1.8,0,3.6-0.4,5.4-0.3c1,0.1,1.5,1,1.5,1.5c-0.1,0.6-0.3,1-1,0.9c-1.4-0.1-2.7-0.1-4-0.3
	c-1.4-0.1-2.5,0.3-3.3,1.3c-0.4,0.5-0.3,0.8,0.3,1c0.3,0,0.7,0.2,1,0.2c0.7,0.1,1,0.4,1.3,1.1c0.1,0.4,1,0.8,2.4,0.9
	c1.8,0.1,2.8,0.1,4.4-0.4c0.7-0.2,1.1-1,1.6-1.6c1.1-1.5,1.8-1.9,3.7-1.5c1.3,0.2,2.2-1.2,3.4-1.1c2.2,0.3-0.3-4.1-1.7-5.6
	c-1.9-1.4-3.4-4.2-5.1-6.3c-1.2-1.5-2.7-2.1-3.8-4c-2-3.4-3.7-7.4-6-10.1c-0.9-0.9-2.8-0.3-3.7,0.2c-0.4,0.2-0.8,0.4-1.1,0.8
	c2.7,2.3,2.8,5.5,1.9,7.8c-0.3,0.7-0.5,0.7-1.3,0.4c-0.7-0.3-1.4-0.5-2.1-0.9c-0.5-0.2-0.9-0.1-1.4,0.2c-2.1,1.3-4.6,2.9-5,2.5
	c-0.8-0.8-2.2-3.3-2.1-4.6c0.1-1,0.4-1.9,0.8-2.5c-0.9-0.5-1.8-1.1-2.7-1.7V361C74.4,359.3,76.7,357.7,78.5,357.7z M26.7,333.6
	c0.2,1.6,0.9,3,2.5,3.6c2.3,1,5.3,1.5,7.8,1.5c3,0.1,6.3-0.2,9.9-0.8c5.5-1.1,10.9-3,16-5.6c3.1-1.6,6.3-2.8,9.7-3.7
	c3.5-1,7.2-1.1,10.7-0.3c1.6,0.4,1.9,0.4,1.7-0.7c-0.1-0.8-0.3-1.5-0.4-2.3c-0.4-2.6-0.3-5.2-1.3-7.4c-0.3-0.6-0.9-1.1-1.5-1.3
	c-0.8-0.4-1.7-0.6-2.5-0.8c-1.8-0.3-3.6-0.3-5.4,0c-2.8,0.4-5.6,1.2-8.1,2.5c-2.8,1.4-5.5,2.9-7.6,4.1c-3.4,2.1-7.3,3.2-11.3,3.2
	c-2.6,0-4.4-0.1-7-0.4c-3.6-0.2-7.1-1.2-10.3-2.8c-0.7-0.4-1.1-0.3-1.4,0.5C26.8,326.3,26.3,329.9,26.7,333.6L26.7,333.6z
	 M149.9,362.7c-0.9,0.1-2.8,0.4-3.9,0.4c-0.4,0-0.7-0.1-1.1-0.1c0.2-0.3,0.3-0.4,0.5-0.5c1.3-0.7,2.8-1.3,3.8-2.1
	c0.6-0.4,0.4-0.8,0.3-1.2c-1.9,0.8-3.6,1.2-5.6,1.5c-0.1,0-0.2-0.1-0.3-0.2c1.5-1.1,3.6-2.1,4.7-3c0.7-0.6,0.2-0.8-0.1-1
	c-1.6,0.6-3.2,1.1-4.9,1.5c-0.3,0-0.5,0-0.8-0.1c0-0.3,0.3-0.5,0.6-0.7c1.7-0.9,3.3-1.9,4.7-3.1l-0.1-0.4l-0.6-0.1
	c-1.3,0.2-4.2,0.7-5.7,0.8c-0.8,0-0.7-0.4-0.5-0.5c1.3-0.6,2.2-1.2,3.1-2.2c0.3-0.4,0.3-0.7,0.2-0.9c-1.5,0.7-3.2,0.7-4.2,0.8
	c-0.2-0.2,0.1-0.5,0.2-0.7c1.2-0.5,1.5-0.9,2.1-1.3c0.4-0.3,1.3-0.9,1.5-1.2c0.1-0.1,0.1-0.5,0-0.6c-1.2,0.4-2.4,0.7-3.7,0.9
	c-0.2,0-0.4,0-0.7-0.1c0.1-0.3,0.1-0.5,0.3-0.6c1.8-0.9,2.7-1.3,3.9-2c0.4-0.3,0.6-0.7,0.8-1.1l-0.1-0.2l-4.2,1.3
	c-0.3-0.1-0.4-0.2-0.7-0.4c0.1-0.2,0.3-0.4,0.5-0.5c2.9-1,5.6-2.5,7.9-4.5c0.7-0.5,1.3-1.2,1.5-1.7l-0.2-0.3c-2.7,2-5.6,3.6-8.6,4.9
	c-0.7-0.1-0.5-0.4-0.3-0.6c0.3-0.3,1.1-1.2,1.8-2.1c2.6-1,5.1-2.4,7.2-4.2c0.2-0.2,0.3-0.7,0.1-1c-1.4,0.6-3.6,1.8-5.4,2.6l-0.4-0.1
	c0.1-0.3,0.2-0.7,0.4-1c1.7-1,3.2-2.3,4.6-3.7c0.1-0.2,0.1-0.4,0-0.7c-1.2,0.7-2.5,1.1-3.8,1.5c-0.4-0.3,0.1-1,0.1-1.2
	c1.8-1.4,2.6-2.4,3.4-3.6c0.2-0.3,0.2-0.5,0-1c-1,0.7-2.4,1.1-3.4,1.5l-0.3-0.1c-0.1-0.4,0-0.3,0.1-0.5c1.3-1.2,2.4-2.1,3.1-3.4
	c0.1-0.1,0.1-0.5-0.1-0.7c-1,0.4-1.8,0.7-3,1c-0.1,0-0.3,0-0.4-0.1c0.1-0.4,0-0.4,0.1-0.7c0.8-0.7,1.5-1.6,2.3-2.7
	c0.2-0.3,0.2-0.5,0-0.7c-0.5,0.1-1.5,0.3-2.1,0.3c-0.2,0.1-0.5-0.2-0.6-0.4l1.9-1.4c0.1-0.2,0.3-0.3,0.3-0.5
	c-0.2-0.1-0.4-0.2-0.6-0.2c-0.8,0.1-1.6,0.2-2.4,0.4c-1.8,0.4-1.8,0.6-2,1.2c-0.5,2.1-1.2,4.1-2,6c-0.2,0.5-0.6,1.1-1.1,1.3
	c-0.8,0.4-0.6,0.8-0.8,1.6c-0.3,1.5-0.6,1.4-1.2,2.8c-0.4,1-0.9,2-1.7,2.8h-0.4l-0.1-2.1c-0.1-1.4-0.4-1.1-0.7-2.5
	c-0.1-1.3,0.2-2.6,0.3-3.7c0.1-1.3,0.3-3.4,0.3-4.6c-0.1-0.1-0.2-0.3-0.4-0.4c-0.2,0.1-0.3,0.3-0.4,0.5c-0.3,1-0.7,2.4-0.8,3.4
	c-0.3,2.3,0.1,4.5,0,6.8c-0.4,2.4-0.5,4.8-0.3,7.1c0.7-0.1,0.7-0.2,1.8-0.6c1.4-0.5,2.4-0.7,3.8-2c1-0.8,0.8-2.5,1.2-3.9
	c0.5-1.7,1.1-2.3,1.8-2.5c0.2-0.1,0.4,0,0.6,0.1l-1,2.4c-0.3,0.9-0.7,2.3,0.3,2.4l0.7,0.1c0,0.2,0,0.4-0.1,0.6
	c-0.9,0.8-1.6,1.9-5.7,3c-0.5,0.1-1.5,1.4-1.5,1.8c-0.1,0.7-0.1,1.4,0.1,2.4c0.4,4.1,2.4,7.9,4.7,11.7c1.9,3.2,3.3,5.7,5.4,7.7
	c1,0.9,2,1.6,3.6,0.8c0.9-0.4,2-1.1,2.2-1.3C149.9,363.2,149.9,363,149.9,362.7L149.9,362.7z M94.5,304c0.1,1.6-0.2,2-2.3,1.5
	c-2.2-0.7-3.2-0.4-4.6-2c-0.8-1-1.9-1-2.8-0.1c-0.4,0.5-0.7,1-1.4,1.1c-0.1-0.2-0.3-0.5-0.2-0.8c0.2-1,0.8-1.7,1.7-2.1
	c0.6-0.4,1.4-0.6,2.1-0.8c1.9-0.7,2.8-1.9,2.8-4.1c0-1.3,0.4-2.6,0.4-3.9c0-1-0.4-1.3-1.3-1c-1.6,0.6-3.1,1.2-4.6,1.9
	c-0.5,0.2-0.9,0.6-1.1,1c-0.4,0.8-0.7,1.7-1.1,2.5c-0.4,0.5-0.7,0.2-0.8,0.1c-0.7-1.2-1.7-2.4-2.4-3.5c-0.7-0.8-0.7-1.1,0.1-1.7
	l2.6-2.3c1.3-1.2,1.8-2.8,1.9-4.5v-2.4c0-1,0.2-1.4,1.2-1.2c0.7,0.1,1.5,0.3,2.1,0.6c1.2,0.5,2.3,1.2,3.5,1.8
	c0.6,0.4,1.1,0.9,1.1,1.7c0,0.9-0.6,1.5-1.4,1.2c-1.3-0.6-2.6-1-3.9-1.4c-0.7-0.1-1.3,0.2-1.5,0.8c-0.3,1.5,1,1.6,0.9,2
	c-0.3,1.1-2.1,1.4-2.3,2.4c-0.2,0.9-0.2,1.5,0.6,1.3c2.2-0.4,4.3-1.8,6-2.5c1.5-0.6,2.2-0.4,2.4,1.2C93.2,295.8,93.9,299.8,94.5,304
	L94.5,304z M128.6,289.1c0.4,0.1,1,0.4,1.3,0.7c0.8,1.9,2.5,3.9,4.7,5.1c0.7,0.4,1.4,0.5,1.9,0.5c0.2-0.8,0.6-2.2,0.6-3.7
	c0-1.2-0.4-2.5-1.5-3.6c-1-1-2.1-1.8-3.3-2.5c-0.5-0.3-1.2-0.3-1.6,0.1c0,0.3,0,0.7,0.1,0.9c0.5,0.9,1.8,1.8,2.4,2.6
	c0.2,0.9,0.1,0.8-0.6,0.5c-1.5-0.9-2.9-2.1-4-3.5c-0.6-0.7-1-0.7-1.5,0.1c-1.1,1.8-1.8,3.8-2,6c-0.4,2.6,0.9,5.2,3.3,6.4
	c1,0.4,1.8,0.3,2.3-0.6c0.5-1,0.9-1.8,1.2-2.9c0.2-0.6,0.2-0.8-0.2-1.3c-0.5-0.7-1.1-1.3-1.7-1.8c-0.2-0.3-0.5-0.5-0.8-0.7
	c-0.2,0.2-0.2,0.5-0.2,0.7c0,0.8,0.2,1.7,0.2,2.6c0,0.2,0,0.6-0.2,0.7c-0.5-0.2-0.8-0.6-1-1.1C127.5,292.2,127.6,290.4,128.6,289.1z
	 M32.8,258.9l1.6,1.9c0.7,1.3,1,2.4,1.3,3.4c0.3,1,0.7,1,1.3,0.6c0.6-0.4,1-1.2,1-1.9c0-0.6-0.2-1.2-0.4-1.8c-0.6-2.1-0.2-4,1.7-5.4
	c0.7-0.4,1.1-1.2,0.9-1.9c-0.3-1.1-0.6-2.1-1-3.1c-0.1-0.4-0.8-0.5-1.2-0.3c-2.1,1.1-4.6,4.3-2.7,7c0.1,0.1,0,0.7-0.1,0.9
	c-1.8-1.7-5.2-5.3-6.2-5.2c-0.3,0.5-0.5,1.5-0.3,3.6c0.3,2,0.8,4.1,2.3,6.9c0.4,0.6,0.7,1,1.3,1.5c0.4,0.3,1.1,0.7,1.7,0.7
	c0.2-0.4,0.2-1.2,0.1-1.6c-0.5-1.9-1-3.3-1.6-5.1L32.8,258.9z M172.8,266.9c1.5-0.3,2.6-0.7,3.2-0.9c2.4-0.9,4-2.4,4.5-5.1
	c0.2-0.7-0.2-1.1-1-1.3l-1.5-0.4c-1.5-0.4-1.8,0.2-2.4,1.7c-0.5,1.1-0.9,2.4-2.1,3.3c-0.4,0.3-1.6-0.6-2-0.8c2.3-1.5,4.1-3.7,5-6.3
	c0.3-0.5,0-1-0.5-1.2c-0.7-0.2-1.5-0.3-2.4-0.2c-3.7,0.7-6.9,3-8.6,6.4c-0.1,0.3,0,0.9,0.2,1c0.3,0.1,1.2,0.1,1.5-0.1
	c0.2,0,0.3-0.3,0.4-0.5c1-1.7,2.6-2.8,4.5-3.6c0.6-0.3,0.7-0.1,0.4,0.5c-0.4,0.5-3.8,2.9-3.8,3.2c-0.4,1,0.2,1.1,0.8,1.1l1-0.3
	C170.4,265.2,171.5,266.4,172.8,266.9L172.8,266.9z M121.5,266.6c-0.1,0.8-0.4,1.3-1.1,1c-1.5-0.7-2.5-2.4-4.2-2.9
	c-0.6-0.2-1,0.4-1.1,1c-0.3,1.8-0.6,3.3-0.6,4c0,2.4,1.3,3.8,2.6,5.1c0.4,0.3,0.4,0.6,0,0.7l-5.4,3c-0.5,0.4-1.1,0.4-1.7,0
	c-0.5-0.4-0.7-1-0.5-1.6c0.6-2.7,1.1-5.5,1.8-8.1c1.1-4.2,2.9-5.6,5.9-6c1.1-0.2,1.9-0.2,2.7-0.2c0.9,0,1.3,0.2,1.4,1
	C121.5,264.1,121.5,264.8,121.5,266.6L121.5,266.6z M125.6,285c0-2-1.6-2.6-2.4-4.3c-0.7-1.7-1.3-1.7-2.6-0.5
	c-1.5,1.5-2.5,2.7-3,4.9c-0.5,1.9-0.5,3.9,0,5.8c0.1,0.6,0.5,1.2,1.1,1c0.5-0.1,0.8-0.6,0.8-1.1c0-1.7,0.1-3.4,1-4.5
	c0.4-0.5,0.6-0.6,0.8-0.7c0.3,0.4,0.2,0.9,0.2,1c-0.3,1.3-0.4,2.6-0.7,3.9c-0.2,0.8-0.2,1.3,0.3,2.1c0.5,0.8,0.9,0.9,1.3,0.4
	C123.9,290.3,125.6,286.7,125.6,285z M39,290.6c-0.1-1.7-0.5-3.4-1.1-5c-0.7-1.6-1.7-2.5-2.3-2.5c-0.6,0-2,1.7-2.5,3
	c-1.2,3.4-0.6,6.2,1.4,9.5c0.3,0.4,0.8,1.2,1.6,0.4c0.6-0.7,1.1-1.2,1.6-1.9C38.5,293.1,39.1,291.8,39,290.6z M113.7,344
	c-0.4-2.9-2.5-5.6-6.1-8c-0.7-0.3-0.8,0.2-0.8,0.8c0.4,4,0.8,7.9,1.3,11.5c0.1,0.8,0.5,1,1.2,0.6c1.1-0.5,2.1-1,3.1-1.6
	C113.4,346.8,114,346.2,113.7,344z M146.3,311.6c-0.6-1.4-1.5-2-2.9-2.1c-1.4-0.1-2.6-0.3-4-0.6c-0.8,0.1-1.4,0.8-1.9,1.9
	c0,0.2,0.1,0.5,0.3,0.6c0.5,0.2,1.3,0.3,1.4,0.4c0.2,0.1,0.7,0.7,0.8,1.1c-0.1,0.4-0.6,0.8-1.3,0.9c-0.8,0.2-0.8,0.9-0.7,1.7
	c0.1,0.8,0.4,1.5,1.1,2.4c0.6-0.3,0.8-0.4,1.3-0.9c0.4-0.4,0.6-1,0.6-1.6c-0.1-1.8,0.9-3.1,2.1-4.3l0.3,0.1c-0.2,1-0.7,1.8-0.9,2.8
	c-0.2,2.1-1,3.9-3,5.3c0.7,0.8,2.2,0.2,2.7-0.3c0.9-0.8,1.5-1.7,1.9-2.9l0.3-1c0.1,0,0.2,0,0.3,0.1c0.4,0.8-0.2,2.4,0.1,3.5
	c0.4-0.2,0.8-0.5,1-0.8C146.7,316.1,147.1,313.3,146.3,311.6L146.3,311.6z M172.4,269c-0.4,0-1.8,0-2.2,0.1c-0.3,0.1-0.5,0.9-0.3,1
	c0.4,0.3,0.7,0.5,1,0.6c1.3,0.1,1.9,0.1,3.4,0.4c0.2,0,0.5,0.2,0.7,0.4c-0.1,0.1-0.3,0.3-0.6,0.4c-2.8,0.3-3.6,0.3-5.5-1
	c-0.5-0.2-0.7,0.1-0.6,0.7c0.3,1,1.1,1.7,2.5,2.3c1.1,0.5,2.2,1.1,3.4,1.1c1.8-0.1,3-0.2,4.5-0.4c0.8-0.1,1.5-0.6,1.7-1
	c0.1-0.4,0-1.3-0.4-1.8l-1-1.1c-1.7-1.8-2.7-2.9-5.2-2.6C173.4,268.1,172.9,269,172.4,269z M174.1,287.4c0-1-0.1-1.8-0.4-2.7
	c-0.5-1.9-2.2-3.2-4.1-3.4c-1,0-1.5,0.2-1.1,1.1c0.1,0.3,1,1.3,1.4,2.1c0.5,0.9,0.9,1.9,0.9,2.7c0,0.4-0.1,0.8-0.2,1.1
	c-0.6-0.3-1-1.1-1.1-1.5c-0.3-0.9-0.3-1.4-0.6-1.9c-0.2-0.4-0.6-0.6-0.7-0.6c-0.4,0-0.6,0.1-0.6,0.7c-0.4,3.3,1.4,6.5,4.3,7.9
	c0.8,0.3,1,0.1,1.2-0.6C173.7,290.9,174.1,289.2,174.1,287.4L174.1,287.4z M37.4,276.7c-0.4,1.5-0.4,2.5-0.4,3.3
	c0,1.1,0.6,2,1.5,2.4c2.9,1.3,6.1,1.8,9.2,1.5c0.1,0,0.4-0.2,0.4-0.3c-0.1-0.7-0.4-0.7-1-0.9c-1.3-0.5-4.8-1.4-5.3-2
	c-0.4-0.5-0.2-1,0.4-1.1c0.5-0.1,1,0,1.5,0.2c0.9,0.4,1.6,1,2.5,1.5c0.3,0.1,0.6,0.4,1,0c0.2-0.4,0.5-0.8-0.1-1.2l-2.1-1.6
	C43.3,277.1,40.7,276.4,37.4,276.7z M100.8,299.7c-0.1,0.3-0.4,0.6-0.7,1c-0.3-0.3-0.7-0.6-0.8-0.9c-1.4-3.6-2.5-7.3-3.3-11.1
	c-0.1-0.7,0.2-1,0.8-1c1.6,0.2,3,0.9,4.3,1.6c0.2,0.2,0.4,0.7,0.4,1C101.8,293.4,101.4,296.9,100.8,299.7z M32.5,306l-0.2-0.1
	c0.1-1.9,1.1-4.6,0.7-5.3c-0.6-0.1-1.3,0-1.9,0.2c-0.7,0.3-1,1-1.1,2.1c-0.2,2.4,0.2,5,0.7,7.2c0.1,0.8,0.5,0.9,1.1,0.3
	c1.6-1.4,3.1-3.3,4.3-4.7c0.8-1.1,1-2.1,0.7-3.1c-0.3-0.9-0.9-1.2-1.5-1.2c-0.7,0-1,0.5-1.1,1C33.8,303.8,33.2,304.8,32.5,306z
	 M160.5,300.4c1.3,0,2.3,0.2,2.6,0.4c1.5,0.5,2.1,1.2,2.4,1.7c0.3,0.5,0.3,0.8,0.3,1c-0.9,0.3-1.8,0.1-2.5-0.5
	c-1.3-1.3-3.3-1.8-4.4-1.3c0.1,0.9,0.9,1.9,1.6,2.5c2.3,1.8,4.4,2.1,6.8,1.5c0.4-0.1,0.6-0.7,0.6-1.3c-0.1-1.6,0-3.3-1.5-4.7
	c-1.7-1.6-4.1-1.5-5.7-0.8c-0.3,0.1-0.7,0.3-0.9,0.6C159.9,299.7,160.1,300.1,160.5,300.4L160.5,300.4z M102.8,256.4
	c0.5-0.1,0.3,0.1,0.1,0.5c-0.3,1.4-1.1,2.5-2.1,3.5c-0.6,0.5-0.7,1.3-0.3,1.6c0.7,0.7,1.5,0.1,2.1-0.4c1.1-1.2,1.8-2.8,2.5-4.3
	c0.8-1.8,0.6-4.2-0.3-5.7c-0.4-0.7-1.2-0.7-1.7-0.2c-2,1.7-3.2,4.1-3.4,6.6c0,0.4,0,1,0.3,1.2C101.3,258.7,102,257.4,102.8,256.4
	L102.8,256.4z M136.6,323.5c0.1-0.1,0.4,0,0.4,0.1c0,1.5,0.4,3.3,0.5,3.8c0.2-0.1,0.4-0.2,0.6-0.4l0.4-2c0.9-2.9,0.2-5.1-1-7.7
	c-0.2-0.5-0.5-0.5-1-0.3c-0.4,0.1-0.7,0.4-0.4,0.9c0.3,0.4,0.2,0.7,0,1.2c-0.4,0.7-0.7,1.5-1.1,2.4c-0.1,0.6-0.2,1-0.2,1.7
	l-0.4,10.2c0.2,0.6,0.5,0.4,0.7,0.1c0.2-0.6,0.4-1.1,0.5-1.7c0.3-1.6,0.7-1.7,0.8-3.3C136.7,326.8,136.7,325.2,136.6,323.5
	L136.6,323.5z M42.8,260.2c0-0.1,0-0.5,0.1-0.6l1.7,0.3c0.8,0.1,1.3,0,1.5-0.6c0.4-1.2,0.2-2.3-1.1-2.6c-1.9-0.4-3.9,0.3-5.5,0.7
	c-1.1,0.4-1.3,1.5-0.5,2.3c1.2,1.2,2.4,2.4,3.7,3.4c1.1,0.9,2.3,1.1,3.5,0.8c0.6-0.1,1-0.5,1-1c0-0.4-0.1-0.7-0.4-1
	c-0.3-0.2-0.6-0.4-1-0.5L42.8,260.2z M41,334.8c-0.1,0.6-0.4,1-1.3,1c-0.8,0-1.7-0.1-2.5-0.4c-0.9-0.2-1.1-0.6-1.2-0.9
	c-0.3-1.7-0.1-4,0.3-5.5c0.1-0.3,1-0.8,1.4-1c1.2,0.1,2.1,0.3,3,0.5c0.4,0.2,1,1.2,1.1,1.3c0.2,0.5,0.2,1.1,0.2,1.7
	C41.7,332.9,41.2,334.1,41,334.8z M133.5,384.8c2.2,0.8,4,1.1,4.6,1c0.7-0.2,1.1-0.8,1-1.5c0-0.6-0.3-1.1-1.1-1.3
	c-1.7-0.4-3.4-0.6-5.1-1.2c-0.9-0.3-1.6-0.3-2.5,0.4c-1.3,1-2.5,1.5-4.1,1.8c-0.4,0-0.7,0.1-1,0.4c-0.4,0.6-0.3,1,0.4,1.4
	C128.5,385.9,131.1,385.3,133.5,384.8z M142.7,390.3c1.4,0,2.4-0.3,3.3-0.9c1.2-0.9,2.5-1.6,4-1.8c0.6-0.1,1.2-0.7,1.3-1.3
	c0-0.7-0.6-0.8-1-0.9c-1.3-0.4-2.9-0.4-4.3-0.7c-0.4-0.1-1.1-0.1-1.4,0.2c-2.9,2.9-3.4,2.2-4.8,3.6c-0.4,0.5-0.4,1,0.6,1.3
	C141.2,390,142.2,390.2,142.7,390.3z M95.2,281.9c0-0.7,1.3-1.8,2-1.7c0.1,0.1,0.3,0.1,0.4,0.3l0.3,1.5c0.1,0.6,0.3,1.1,0.6,1.1
	c1.4,0.1,3.1-0.9,3.9-2.1c0.8-1.3,1.5-2.8,2.2-4.3c0.7-1.6,1.7-0.6,1.3,0.4c-0.9,2.7-2.1,5.5-2.9,8.2c-0.3,1-0.4,1-1.4,0.7l-4.6-1.6
	C95.9,284,95.1,283,95.2,281.9L95.2,281.9z M130.3,350.3c0.7,0.4,0.7,0.2,1.7-0.4c0.5-0.4,0.8-1,0.9-1.6l-0.3-6
	c0-0.2-0.3-0.5-0.4-0.5c-0.8,0-1.8-0.2-2.5,0.2c-1.3,0.7-2.4,1.7-3.5,2.6c-0.4,0.4,0,0.9,0.6,0.8c0.6-0.2,1.2-0.5,1.8-0.8l1-0.6
	c0,0.2,0,0.4-0.1,0.5c-1,1.1-1.8,2.4-3.1,3.2c-0.4,0.1-0.3,1,0.3,1c0.4-0.1,1.3-0.5,1.5-0.7c0.9-0.7,1.2-1.1,2.1-1.8
	c0.3,0.4,0.5,0.8,0.1,1.1l-2.2,2c-0.3,0.3-0.1,0.7,0.3,0.6c0.6-0.1,1.1-0.3,1.6-0.6c0.6-0.4,1-0.9,1.5-1.4c0,0.1,0.3,0.4,0.3,0.4
	C131.3,349,130.9,349.6,130.3,350.3z M59.4,280.7c-0.3,3.3-1.2,6.7-2.7,8.2c-1.2-2.4-2-5.1-2.9-7.4c0.7-0.8,1.5-2.1,1.8-3
	c0.2-0.5,0.4-0.6,0.9-0.2C57.6,279.1,58.5,279.9,59.4,280.7L59.4,280.7z M63.4,328.4c-0.2,0.8-0.7,1.5-1.5,1.9
	c-0.6,0.3-1.5,0.7-2.6,0.7c-0.5,0-0.9-0.1-1-0.6l-0.9-4.5c0-0.4,0.3-0.8,0.6-1.1c1-0.9,2.2-1.2,3.5-1.2c0.3,0,1.2,0.4,1.3,0.6
	C63.1,325.6,63.3,326.9,63.4,328.4L63.4,328.4z M51.3,310.5c-1.8,0.3-3.3,1.9-3.1,2.5c0,1.4,0.3,2.7,1.1,3.9
	c0.4,0.7,0.8,0.9,1.5,0.4c2.3-1.3,4.1-3.1,5.3-5.4c0.4-0.7-0.4-0.9-1-1.2c-0.9-0.4-1.8-0.4-2.3-0.2c-0.5,0.3-0.7,0.8-0.8,1.2
	c-0.6,2-0.7,2.1-1.3,2.8C50.4,313.1,50.6,311.7,51.3,310.5z M63.3,386.5c0.1-0.2,0.1-0.4,0.4-0.4c0.3-0.1,1.1-0.1,1.2,0
	c1.6,0.4,3-0.7,4.5-0.9c0.3-0.1,0.7-0.1,1.1-0.1c1,0,1.9,0.1,3-0.2c0.4-0.2,1,0.1,1.5,0.3c1.7,0.7,3.3,1.1,5,0.2
	c0.9-0.6,1.7-1.1,2.6-1.6c1.5-0.6,1.7,0.4,1.7,1c-0.1,0.4-0.4,0.7-0.8,0.9c-5.3,1.9-9.8,1.9-15.7,1.2
	C66.2,387,64.7,386.9,63.3,386.5L63.3,386.5z M30.3,331.1c-0.1,0.7,0.1,1.8,0.7,2.4l0.3,0.2l-0.1,0.4c-0.9,0-1.8-0.1-2.7-0.4
	c-0.4-0.1,0.7-0.7,0.8-1.4c0.2-1.3,0.6-3.6,0.6-5.2c0-0.3-0.7-0.6-0.7-0.8c0-0.2,0.2-0.4,0.3-0.6c2,0.5,2.2,0.4,2.6,1.4
	c0.4,0.8,0.7,2.2,1.3,3.2c0.1-0.1,0.3-0.1,0.4-0.2c0.1-0.9,0.1-2.2,0.1-2.9c0-0.5,0.3-0.7,0.8-0.7c0.4,0,1.4,0,1.8,0.1
	c0.1,0.1,0.1,0.1,0.1,0.3c0,0.2-0.3,0.3-0.4,0.4c-0.9,0.3-1,0.4-1.4,3l-0.4,2.9c-0.1,0.2-0.1,0.7-0.2,1c-0.2,0-0.7,0-0.8-0.2
	c-0.6-1.5-1.5-3.2-2.3-4.6h-0.3C30.4,330,30.4,330.6,30.3,331.1L30.3,331.1z M91.2,344.8c0.1-0.6,0.1-1.2,0-1.7
	c-0.3-1-0.7-1.9-0.6-2.7c0.4-1.5,0.7-3,0.6-4.5c-0.2-1.8-0.2-3.7,0.1-5.5c0.5,0.2,0.9,0.5,1,0.8c0.1,0.6,0.3,1.2,0.3,1.7
	c0.2,1.6,0.1,3.1,0,4.6c-0.2,3-0.5,5.7-0.4,8.7c0.1,0.4,0.1,1,0.3,1.4c0.4,0.9,0.2,1.9-0.5,2.9l-0.4-0.2c-0.3-1.2-1.2-2.9-1.5-4.3
	c-0.1-0.2,0-0.4,0.3-0.5C90.9,345.5,91.2,345.1,91.2,344.8L91.2,344.8z M120.1,322.7c-1.2-0.1-2.5-1.2-2.4-3.1c-0.6,0.8-1.3,1.6-2,2
	c0.1,0.7,1.7,1.6,2.8,2.1c0.7,0.8,1.1,1.3,1.9,2.2c0.5-1.3,1.1-2.4,1.3-3.1c0-1.6-0.3-3.1-1-4.5c-0.9-1-2.4-1.9-3.8-2.8
	c-0.7,0.7,0.2,2.4,1.9,3.3c-0.4,1.1-0.3,2.7,1.4,3.6L120.1,322.7z M37.2,319.7c0.9-0.1,1.8-0.2,2.8-0.3c0.7-0.2,1.4-0.3,1.4-1.2
	c0.1-0.7-0.8-1.1-1.4-1.3c-2.9-0.7-6-0.4-8.7,0.9c-0.7,0.4-1.4,0.8-1.8,1.3c-0.7,0.7-0.5,1.2,0,1.5c0.5,0.4,1.3,0.9,2.4,1.1
	c0.1-0.6,0.2-1.6,0.4-2.2c1-1.5,3.6-1.8,5.4-1.9c0.4,0.1,0.4,0.7,0.1,0.8c-0.5,0.4-1.6,0.3-1.8,0.8C36,319.6,36.5,319.8,37.2,319.7z
	 M43.1,335.8c0-0.3,0.4-0.7,0.4-1c0.1-0.4,0.1-1,0.1-1.5c0.1-1.2-0.2-3.2-0.2-4.3l0.7-0.4c0.2-0.1,0.4,0.1,0.6,0.3
	c0.6,0.5,1.8,1.9,2.4,2.4c0.1,0,0.1-0.1,0.2-0.2v-0.9c0-0.6-0.1-1-0.3-1.7c-0.2-0.7-0.7-1.3-0.1-1.3l2.3-0.1
	c-0.2,0.4-0.4,0.8-0.5,1.4c-0.1,0.9-0.3,1.8-0.3,2.6c0.1,1.3,0.4,2.6,0.5,3.8c0,0.1-0.2,0.2-0.3,0.3c-0.2-0.1-0.5-0.2-0.7-0.4
	c-1.1-1.1-1.9-2.1-3.3-3.5c-0.1,0.2-0.2,0.4-0.2,0.6c0.3,0.9,0.6,1.8,1.2,2.7c0.4,0.5,0.4,0.6-0.5,1
	C44.5,335.7,43.7,335.9,43.1,335.8L43.1,335.8z M83.6,336.1c1.3-0.8,1.8-3.5,1.5-4.8c0-0.3-0.2-0.7-0.4-0.9
	c-0.4-0.4-0.9-0.3-1.1,0.4c-0.3,1-0.4,2.1-0.5,3.1c-1-0.2-2-0.2-2.9-0.1c-1,0.1-2.9,0.7-2.9,1.9C77.2,337.7,81.7,337.2,83.6,336.1z
	 M91.5,322.7c0,0.6,0.2,1.1,0.5,1.5c2,2.1,4.8,4.2,6.5,4.6c1.5,0.4,2.9,1.3,3.8,2.6l0.9,1.3c0.7,0.8,1.5,1.4,2.7,1.5
	c0.2,0.1,0.5,0,0.7,0c-0.2-0.7-0.2-0.8-0.7-1.3c-4.1-3.7-8.5-6.5-12.7-9.5C92.8,323.2,92,322.8,91.5,322.7L91.5,322.7z M48.6,369.8
	L48.6,369.8c-0.4-1.8-0.9-3.5-1.3-5.2c-0.4-0.6-1-0.2-0.9,0.1c-0.4,1.2-0.9,2.5-1.3,3.8c-0.1,0.4-0.1,0.8,0,1.2
	c0.7,1.8,1.3,3.6,2,5.4c0.1,0.2,0.4,0.4,0.6,0.5c0.2-0.2,0.4-0.5,0.5-0.7L48.6,369.8z M55.9,326.3c0.1,0.4,0.3,0.8,0.3,1.2
	c0,0.3,0,0.5-0.1,0.7c0,0.1-0.2,0.1-0.4,0c-0.9-0.4-1.8-1-2.6-0.4c-0.3,0.2-0.2,0.7,0.2,0.9l2.4,1c1.1,0.4,1.4,0.9,1.2,2.2
	c-0.2,1.3-1.1,1.8-2.2,2.1c-0.4,0.1-0.9,0.2-1.5,0.1c-0.1,0.4,0,0.8-0.3,1c-0.2,0.1-0.2,0.1-0.4,0.2c-0.4-1-0.7-2-0.8-3
	c0-0.2,0.1-0.3,0.2-0.4c0.4,0.1,0.7,0.6,1.3,1.1c0.7,0.2,1.8,0.4,2,0.2c0.3-0.4,0.5-0.7,0.5-0.8c0-0.3-0.4-0.6-0.7-0.7
	c-0.8-0.5-1.3-0.7-2.2-1c-0.8-0.3-1-1.1-1-1.8c0-0.7,0.4-1.5,1.6-1.9l1.4-0.4c0.1-0.2,0.2-1.1,0.2-1.2c0.2,0,0.5-0.1,0.6,0
	L55.9,326.3z M38.6,274.1c-1.7,0-2.7-0.4-4.4-0.3c-1.2,0.1-2.4,0.6-3.5,1c-0.7,0.4-0.6,0.7,0.1,0.9c0.6,0.3,1,0.4,1.6,0.4l10.7-1
	c0.2-0.3,0.4-0.5,0.6-1c-1.3-0.9-3-0.7-4.6-1.2L38.6,274.1z M78,325.4c-0.1,0.1-0.4,0.3-0.8,0.7c-0.2,0.2-0.4,0.4-0.7,0.5l-0.5-0.3
	l0.8-1.8c0.3-0.7,0.5-0.8,1.2-0.3l0.6,0.5c0.5,0.4,1.2,0.7,1.8,0.5c0.6-0.3,0.3-1.1-0.3-1.4c-0.9-0.6-1.6-0.7-2.7-1.4
	c-0.6-0.4-0.9-1-0.9-1.8c0-0.7,0.4-1.5,1.3-1.6c0.3-0.1,0.7-0.1,1.2-0.1c0.6,0,1-0.1,1.3-0.6c0.3-0.3,0.6-0.6,0.7-0.2
	c0.2,1,0.1,2.1-0.2,2.7c-0.2,0-0.3,0-0.5-0.1c-0.5-0.8-1.2-1.2-1.8-1.1c-0.6,0.1-0.8,0.5-0.4,0.9c0.7,0.8,1.8,1.2,2.7,1.7
	c1.3,0.7,1.2,1.7,1,2.4c-0.2,0.9-1,1.5-1.9,1.5C79.4,326.1,78.8,325.9,78,325.4z M75.5,322.9c0.1,2.1-1.6,2.9-2.8,2.9
	c-1.1,0-1.8-0.2-2.2-1.4c-0.2-0.7-0.4-2.7-0.5-3.5c-0.2-0.3-0.6-0.4-1.2-0.5c-0.3-0.1-0.3-0.3-0.4-0.5c0.4-0.2,1.2-0.4,1.7-0.5
	c1.2-0.2,1.2-0.1,1.4,1c0.1,1.3,0.4,2.6,0.6,3.9c0.4,1.3,1.8,1,1.8-0.1c0-1,0.1-2.1,0-3.2c-0.2-0.2-0.6-0.8-1-1.1
	c-0.5-0.6-0.5-0.7,0.2-1c1.5-0.6,1.7-1,1.9,1.1C75.1,320.7,75.5,321.9,75.5,322.9L75.5,322.9z M77,333.8l3.9-0.9
	c1-0.3,1.6-1.4,1.5-2.4c-0.1-0.7-0.6-1.2-1.3-1.3c-1.7-0.2-3.4,0.1-5,0.7C75.9,331.2,76.4,332.7,77,333.8L77,333.8z M41.3,320
	c-0.5,0-1.2,0.1-1.6,0.3c-1,0.2-1.5,0.3-2.4,0.2c-0.6-0.1-1.5-0.4-2-0.5c-0.6,0-1.2,0.6-1.4,1.4c-0.1,0.8,0.4,1.4,1.3,1.6
	c1.8,0.4,3.6,0.7,5.3,0.7c0.7,0,0.7-0.1,0.8-0.6C41.4,322,41.3,321.1,41.3,320z M85.7,280.4c-0.8-0.2-1.7-0.4-2.4-0.7
	c-0.3-0.1-0.4-0.8-0.4-1.1c0.1-1-0.2-1.9,0-3c0.1-0.5,0.4-0.7,0.9-0.6l2.2,0.6c1,0.4,2.4,3,1.9,3.9
	C87.4,280.2,86.6,280.4,85.7,280.4L85.7,280.4z M69.6,325.8c-0.2,0.3-0.5,0.5-0.8,0.7c-0.9,0.6-2.6,1-3.7,1.7
	c-0.6,0.4-0.3-1-0.3-1.5l-0.6-3.1c-0.2-0.6-0.5-1.2-1-1.7c-0.3-0.4,0.6-0.5,1.1-0.7l1.8-0.6c0.7-0.2,0.8,0.3,0.7,0.4
	c-0.9,0.7-0.8,1-0.7,1.8c0.1,0.9,0.1,1.8,0.2,2.5c0.1,0.3,0.3,0.8,0.6,1.1c0.5-0.1,1.2-0.6,1.2-0.7l0.1-1.8c0.7-0.8,0.8-0.4,0.9,0
	C69.3,324.6,69.4,325,69.6,325.8z M72.4,306.1c-0.4-1.2-0.8-2.5-1.1-3.7c-0.1-0.5,0.3-0.8,0.8-0.7c1.7,0.4,3.3,0.7,5,1.2
	c0.5,0.1,0.5,0.6,0.2,0.9c-1.1,1.1-2.2,2.1-3.7,2.7C72.8,306.9,72.8,306.6,72.4,306.1L72.4,306.1z M144.2,262.1
	c-0.3-1.6-0.9-3.2-1.9-4.6c-0.8-1-1.7-1-2.5-0.2c-0.3,0.3-0.5,0.6-0.7,0.8c-0.8,1.1-0.8,1.4,0.5,2c1.9,0.6,3,1.7,4.3,3.1
	L144.2,262.1z M56.2,369.8c-1,0.5-1.8,1.3-2.5,2.2l-1.7,3c-0.2,0.5-0.5,1.6-0.7,2.4l0.3,0.3c0.9-0.5,1.7-1.1,2.5-1.8
	c1.4-1.4,1.7-2.7,2.5-5.4l0.1-0.3L56.2,369.8z M178.3,255.9c-0.7-1.5-2.1-3.6-2.7-4.4c-0.8-1-1.1-1-2-0.2l-0.7,0.8
	c-0.8,1-1.3,2.3,0,2.5c1.2,0.2,2.8,0,3.5,0.5l1.6,1.1L178.3,255.9z M37.8,330.3c-0.2,2.1-0.1,2.1-0.1,3.5c0,0.8,0.4,0.8,1,0.8
	c0.6,0,0.8-0.6,1-1.3l0.4-2.8c0.1-0.9,0.1-1.4-0.4-1.5C38.6,328.8,37.9,329.5,37.8,330.3L37.8,330.3z M48.6,292.9
	c-0.9-0.2-1.8-0.5-2.6-0.9c-1.4-0.7-2.7-2.2-2.5-3.6c0.1-0.7,0.5-0.8,1-0.5c1.1,0.8,2,1.9,2.7,2.8C47.9,291.3,48.4,292,48.6,292.9
	L48.6,292.9z M59,325.8c0,0.6,0.5,2.2,0.7,3.1c0.1,0.5,0.2,0.9,0.9,0.8c1-0.1,1.3-0.5,1.1-1.3c-0.1-0.8-0.3-1.7-0.5-2.6
	c-0.2-0.8-0.5-1.3-1.3-1.3C59.2,324.6,58.9,324.9,59,325.8L59,325.8z M100.1,273.5c-0.6,1-1.1,2.1-1.8,3c-0.5,0.8-1.4,1.2-2.1,1.9
	c-0.7,0.2-0.7,0.1-0.5-0.6c1.1-1.8,2.1-3.2,3.3-4.7C99.8,272.7,100.1,273,100.1,273.5L100.1,273.5z M155.7,302.3
	c0,0.7-0.1,1.3-0.3,1.9l-0.2,0.1c-0.9-2.2-2.9-5.7-2.8-6c-0.1-0.2,0.5-0.4,0.7-0.3l1,0.4C154.7,299.6,155.2,300.8,155.7,302.3z
	 M161.8,256.4c0.1,0,0.4,0.1,0.7,0.3c0.4,0.3,0.5,0.7-0.1,1c-1.3,0.6-3.5,1.8-4.9,2.3c-0.3,0.1-0.6,0.2-0.4-0.3
	C157.3,258.8,160.6,256.3,161.8,256.4L161.8,256.4z M114.4,316.5c-0.9,0-1.7,0.7-1.7,1.4c0,0.8,1,1.7,2,1.7c0.8,0,1.4-0.5,1.4-1.4
	C116.1,317.2,115.4,316.5,114.4,316.5z M41.3,386.5c-0.2,0-0.5,0.6-0.8,0.6c-1.1,0.1-1.5,0.2-1.5,0.7c0,0.6,0.3,1,0.8,0.8
	c1.7-0.5,2.1-0.4,4.2-0.3l0.7-0.9c-0.3-0.2-0.4-0.5-0.7-0.6C43.2,386.6,42.2,386.5,41.3,386.5L41.3,386.5z M139,306.7
	c-0.4,0.2-0.7,0.4-0.6,0.9l0.3,0.7c0.6-0.1,1.3-0.2,2-0.1c0.9,0.3,2.4,0.6,3.3,0.8c0.2,0.1,0.5-0.2,0.7-0.4l-0.2-0.4
	C143.2,306.9,141.1,306.8,139,306.7L139,306.7z M77.9,278.7l-2.3-1c-0.1-0.1-0.2-0.5-0.1-0.7c0.5-0.7,1-1.4,1.5-2.1
	c0.3-0.3,0.5-0.3,0.6,0.1l1.1,2.8C79.1,278.5,78.8,278.7,77.9,278.7z M48.1,306.6c0.5-0.1,0.8,0.2,0.7,0.7c-0.1,0.3-0.1,0.4-0.6,0.6
	c-1.7,0.6-3.3,0.5-5.1,0.2c-0.5-0.1-0.9-0.2-1-0.3c0.1-0.2,0.4-0.4,0.7-0.5L48.1,306.6z M64,262.1c-0.2,0-0.4,0.2-0.5,0.1
	c-1.5-0.8-3.6-1.9-4.9-2.8c-0.3-0.4-0.1-0.6,0.3-0.5c1.1,0.4,3,0.9,4,1.3C63.7,260.5,63.9,261.2,64,262.1z M86.6,294.4
	c0.2,0.3,0.3,0.5-0.1,1.3c-0.8,1.2-1,2.4-1.5,4c-0.1,0.4-0.3,0.7-0.5,1c-0.1,0.2-0.4,0.2-0.6,0.3c-0.1-0.2-0.2-0.4-0.1-0.6l1.5-4.9
	C85.5,294.9,85.9,294.6,86.6,294.4z M140.7,278.1c-2-0.4-4-1.1-5.8-2c-0.6-0.6-0.5-0.5,0.3-0.6l5.5,1.5
	C141.7,277.8,141.5,277.8,140.7,278.1z M118.1,312.8c-0.1-0.4-0.4-0.8-0.8-1c-0.3-0.1-0.8-0.1-1.1,0.2c-0.3,0.2-0.7,0.5-0.9,0.8
	c-0.4,0.6-0.1,1.2,0.5,1.6c0.5,0.4,1.2,0.4,1.5-0.2C117.6,313.8,117.9,313.5,118.1,312.8z M81.6,286c-0.2,0.4-0.3,0.9-0.5,1.2
	c-0.7,0.9-1.6,1.7-2.4,2.6c-0.8,0.4-0.8-0.1-0.7-0.5c0.7-1.4,1.8-2.6,2.8-3.7c0.1-0.1,0.4-0.2,0.5-0.1
	C81.4,285.5,81.5,285.7,81.6,286z M50.3,278.4c-0.2,0.1-3.1-4.5-3.5-5.4c0-0.2,0.5-0.5,0.7-0.7c0.2,0.1,0.4,0.3,0.5,0.4
	c0.9,2,2.6,5.4,2.4,5.5L50.3,278.4z M49.1,296.7l-1.3-0.6c-0.9,0.2-1.7,0.6-2.7,0.7c-1.1,0.1-1.5-0.1-1.9-0.4
	c0.1-0.4,0.7-0.7,1.6-0.8c0.5-0.1,2.7-0.3,4.6-0.1L49.1,296.7z M161.9,273.4l3.2,2.4c0.3,0.2,0.3,0.7,0.4,1l-0.7-0.1
	c-1.4-0.7-2.8-1.3-3.7-2.6C160.3,272.9,161.5,273,161.9,273.4z M80.4,277.3l-0.4,0.6c-0.1-0.2-0.3-0.3-0.4-0.6
	c-0.3-0.5-0.3-1.2-0.3-1.8c-0.2-1.4-0.1-2.1,0.7-2.9c0.4-0.4,0.6-0.1,0.6,0.2C80.8,274.6,80.7,275.7,80.4,277.3z M59.8,272.3
	c0.3,0.1,0.8,3.4,1.2,5.1c0.1,0.4,0.1,0.9,0,1.3c-0.1,0.4-0.3,0.5-0.6,0.1c-0.6-1.8-0.8-3.5-1.1-5.2
	C59.2,273.1,59.2,272.6,59.8,272.3L59.8,272.3z M153.8,292.4c1.3,0.7,2.9,2.1,3.5,2.9c0.1,0.1,0.1,0.6,0,0.9
	c-0.2-0.1-0.5-0.1-0.7-0.2c-1.1-0.7-2.1-1.5-3.2-2.2c-0.1-0.1-0.1-0.9-0.3-1.1C153.4,292.5,153.6,292.4,153.8,292.4L153.8,292.4z
	 M93.2,263.8c0.2,0.1,0.3,0.3,0.4,0.5c-0.1,0.2-0.3,0.4-0.4,0.5c-1,0.4-3.2,0.4-4-0.2c-0.2-0.2-0.3-0.3-0.5-0.5l0.6-0.4
	C90.6,263.4,92.1,263.5,93.2,263.8L93.2,263.8z M118.1,269.1c0.9,1.4,1.3,2.7,1.7,4.2c0,0.1-0.1,0.1-0.1,0.4
	c-0.2-0.1-0.3-0.2-0.4-0.3c-1.1-1-1.8-2.3-2.2-3.7c-0.1-0.3-0.1-0.6,0.4-0.8C117.7,268.9,118,269,118.1,269.1z M100.9,364
	c1.1-0.6,1.4-1.1,2.3-1.6c0.4-0.2,0.4-0.3,0.1-0.7c-0.2-0.4-0.4-0.4-1-0.3c-1,0.4-1.5,0.6-2.5,1c-0.4,0.2-0.6,0.4-0.1,0.7L100.9,364
	z M68.5,265.7c1.3-0.9,2.7-1.3,4.1-1.9c0.2-0.1,0.6,0,0.8,0.3l-0.5,0.4c-1.1,0.8-2.2,1.4-3.3,2c-0.3,0-0.8-0.1-1.1-0.2
	C68.4,266.2,68.4,265.9,68.5,265.7z M35.3,292.9c-0.3-1.5-0.7-3.3-0.4-4.6c0.1-0.3,0.3-0.6,0.6-0.8c0.2,0.3,0.5,0.4,0.6,0.7
	c0.3,1.6-0.2,3.3-0.3,4.8L35.3,292.9z M107.5,259.4c1-0.8,2.6-1.6,3.7-2.2c-1,1.6-2.3,3-3.8,4.1
	C107.3,260.7,107.1,259.8,107.5,259.4z M89.7,317.3c0,0.6,0.3,1.3,0.8,1.8c0.3-0.2,0.5-0.7,0.5-0.8c0.1-1.2,0.2-2.4,0.2-3.6
	c0.1-0.5-0.5-0.6-0.7-0.1C90.2,315.4,89.8,316.4,89.7,317.3z M150.6,365.2l-5.1,1.7C146.7,368.3,150.1,367.2,150.6,365.2z
	 M75.1,272.2c0.1,1.4-0.2,3.1-0.9,4.3c-0.1,0.1-0.3,0.3-0.5,0.4c-0.1-0.2-0.3-0.4-0.3-0.6c0.3-1.4,0.6-3,1-4.4
	c0-0.1,0.3-0.1,0.4-0.2L75.1,272.2z M146.9,370.1c1.1,0,2.2,0,3-0.2c0.8-0.5,0.7-1.5,1-2.1l-0.3-0.1l-1.2,1.1
	c-0.8,0.2-1.7,0.4-2.5,0.5c-0.1,0.2-0.3,0.3-0.4,0.5C146.6,370,146.8,370.1,146.9,370.1L146.9,370.1z M136.6,315.3
	c0.4-0.8,0.7-1.5,1-2.3c0.1-0.1-0.2-0.6-0.5-0.9c-0.2,0.1-0.4,0.2-0.6,0.3c-0.7,0.7-1.2,1.6-1.6,2.4C135,315,135.5,315,136.6,315.3
	L136.6,315.3z M50.9,293.5l1.1-2.7c0.2-0.1,0.4-0.1,0.5,0c0.1,0.9,0,2.2-0.1,2.7c-0.2,0.7-0.4,1.2-1.1,1.5
	C51.1,294.5,50.9,294,50.9,293.5z M113.4,313.9c-0.7,0-1.3,0.4-1.4,1.1c0,0.6,0.6,1.1,1.3,1.1c0.7,0,1.2-0.5,1.3-1.2
	C114.5,314.2,114.1,313.9,113.4,313.9z M112.7,320.7c0-0.7-0.4-1.3-1.3-1.3c-0.7,0-1.1,0.4-1.1,1c0,0.7,0.7,1.3,1.4,1.3
	C112.3,321.7,112.7,321.3,112.7,320.7z M109.9,313.7c0,0.6-0.4,1-1,1c-0.8,0-1.4-0.5-1.4-1.2c0-0.6,0.5-1.1,1.1-1.1
	C109.3,312.3,109.9,312.9,109.9,313.7L109.9,313.7z M110.4,316.5c-0.7,0-1.1,0.4-1.1,1c0,0.6,0.6,1.1,1.3,1.1c0.5,0,1-0.5,1-1.1
	C111.5,316.9,111.1,316.5,110.4,316.5z M103.1,366c-0.9,0-1.6,0.4-1.6,0.9c0,0.5,0.7,1.1,1.2,1.1c0.6,0,0.9-0.6,0.9-1.3
	C103.6,366.1,103.7,366,103.1,366z M50.3,261.2c-0.4-1.6-0.3-3.3,0.2-4.9C51.2,257.7,51.3,260.1,50.3,261.2z M112.7,309.7
	c-0.4,0.3-0.8,0.7-0.8,0.9c0.1,0.3,0.4,0.6,0.6,1c0.3-0.2,0.6-0.5,0.7-0.9C113.4,310.5,113,310.1,112.7,309.7L112.7,309.7z"/>
</svg>
